<?xml version="1.0" encoding="utf-8"?>
<!-- Generator: Adobe Illustrator 16.0.3, SVG Export Plug-In . SVG Version: 6.00 Build 0)  -->
<!DOCTYPE svg PUBLIC "-//W3C//DTD SVG 1.1//EN" "http://www.w3.org/Graphics/SVG/1.1/DTD/svg11.dtd">
<svg version="1.1" xmlns="http://www.w3.org/2000/svg" xmlns:xlink="http://www.w3.org/1999/xlink" x="0px" y="0px"
	 width="910.333px" height="208px" viewBox="0 0 910.333 208" enable-background="new 0 0 910.333 208" xml:space="preserve">
<g id="GUIDES" display="none">
	
		<circle display="inline" fill="none" stroke="#00FFFF" stroke-width="0.75" stroke-miterlimit="10" cx="179.828" cy="171.673" r="7.006"/>
	
		<circle display="inline" fill="none" stroke="#00FFFF" stroke-width="0.75" stroke-miterlimit="10" cx="179.828" cy="70.504" r="7.006"/>
	
		<circle display="inline" fill="none" stroke="#00FFFF" stroke-width="0.75" stroke-miterlimit="10" cx="165.46" cy="171.673" r="7.006"/>
	
		<circle display="inline" fill="none" stroke="#00FFFF" stroke-width="0.75" stroke-miterlimit="10" cx="151.092" cy="171.673" r="7.006"/>
</g>
<g id="Popcorn">
	<g>
		<path fill="#333333" d="M208.31,63.497V41.768c0-3.921-0.45-4.693-2.699-4.693c-1.607,0-3.858,1.092-5.722,2.764v23.659h-8.166
			V42.089c0-4.115-0.578-5.08-2.958-5.08c-1.607,0-3.792,0.837-5.656,2.507v23.98h-8.423V40.545c0-4.756-0.322-6.813-1.22-8.421
			l7.779-2.122c0.579,0.9,0.835,1.672,1.157,3.342c2.249-2.186,5.015-3.342,8.036-3.342c2.701,0,4.95,0.9,6.685,2.701
			c0.45,0.448,0.9,1.029,1.287,1.607c3.021-3.086,5.722-4.308,9.321-4.308c2.572,0,5.015,0.772,6.494,2.057
			c1.864,1.607,2.444,3.536,2.444,8.036v23.402H208.31z"/>
		<path fill="#333333" d="M245.859,59.639c-2.508,2.829-5.787,4.565-10.865,4.565c-8.936,0-14.788-6.686-14.788-17.037
			c0-10.35,5.915-17.23,14.788-17.23c4.693,0,8.357,1.607,11.187,4.952c2.636,3.086,3.793,6.685,3.793,12.022
			C249.973,52.567,248.688,56.425,245.859,59.639z M238.851,38.038c-0.837-1.092-2.188-1.736-3.729-1.736
			c-2.057,0-3.729,1.286-4.436,3.343c-0.579,1.735-0.9,4.051-0.9,7.329c0,3.795,0.387,6.622,1.094,8.294
			c0.771,1.8,2.7,2.701,4.371,2.701c3.729,0,5.337-3.344,5.337-11.123C240.587,42.411,240.008,39.517,238.851,38.038z"/>
		<polygon fill="#333333" points="274.856,63.497 250.619,63.497 250.619,58.161 266.111,36.624 251.904,36.624 251.904,30.581 
			276.334,30.581 276.334,36.496 261.805,57.519 276.913,57.519 		"/>
		<path fill="#333333" d="M283.792,26.851c-2.893,0-5.271-2.377-5.271-5.334s2.443-5.337,5.4-5.337c2.893,0,5.208,2.379,5.208,5.337
			S286.75,26.851,283.792,26.851z M279.485,63.497V31.159l8.616-1.35v33.688H279.485z"/>
		<path fill="#333333" d="M301.987,64.269c-3.665,0-6.622-1.735-7.651-4.501c-0.643-1.67-0.771-2.699-0.771-7.392V27.817
			c0-4.308-0.128-6.944-0.45-9.901l8.808-1.992c0.322,1.8,0.45,3.921,0.45,8.551v25.651c0,5.656,0.065,6.428,0.579,7.329
			c0.321,0.579,1.028,0.9,1.736,0.9c0.32,0,0.514,0,0.964-0.128l1.479,5.143C305.651,63.947,303.85,64.269,301.987,64.269z"/>
		<path fill="#333333" d="M316.196,64.269c-3.664,0-6.622-1.735-7.65-4.501c-0.644-1.67-0.772-2.699-0.772-7.392V27.817
			c0-4.308-0.128-6.944-0.449-9.901l8.807-1.992c0.322,1.8,0.45,3.921,0.45,8.551v25.651c0,5.656,0.065,6.428,0.579,7.329
			c0.321,0.579,1.028,0.9,1.737,0.9c0.319,0,0.514,0,0.964-0.128l1.479,5.143C319.861,63.947,318.06,64.269,316.196,64.269z"/>
		<path fill="#333333" d="M347.181,65.169c-1.992-0.837-3.792-2.316-4.628-3.986c-0.644,0.642-1.35,1.285-1.993,1.735
			c-1.607,1.157-3.922,1.801-6.622,1.801c-7.329,0-11.313-3.729-11.313-10.287c0-7.715,5.335-11.315,15.814-11.315
			c0.644,0,1.223,0,1.929,0.063v-1.351c0-3.664-0.706-4.885-3.857-4.885c-2.765,0-5.979,1.351-9.515,3.728l-3.664-6.172
			c1.735-1.092,3.021-1.735,5.335-2.699c3.214-1.35,5.979-1.929,9.001-1.929c5.529,0,9.322,2.057,10.607,5.722
			c0.45,1.35,0.644,2.379,0.579,5.915l-0.193,11.057c-0.063,3.601,0.193,5.143,3.086,7.329L347.181,65.169z M339.853,49.096
			c-5.979,0-8.036,1.094-8.036,5.015c0,2.571,1.607,4.308,3.793,4.308c1.607,0,3.214-0.837,4.5-2.25l0.13-7.072H339.853z"/>
		<path fill="#FBFAF1" d="M22.509,96.518l8.323,65.228l12.367,8.5l-5.673-65.056L22.509,96.518z M56.074,179.094l12.145,8.349
			v-64.534l-15.809-9.126L56.074,179.094z"/>
		<polyline fill="#676867" points="77.881,57.689 77.881,117.49 129.671,87.589 77.881,57.689 		"/>
		<polyline fill="#C0C1BC" points="26.093,87.589 77.881,117.49 77.881,57.689 26.093,87.589 		"/>
		<path fill="#A42B1D" d="M143.96,87.589c0-1.701-0.908-3.274-2.381-4.125L80.264,48.065c-0.738-0.425-1.559-0.638-2.381-0.638
			v10.265l51.788,29.897l-51.788,29.899v87.138c0.943,0,1.882-0.28,2.695-0.839l51.502-35.401c1.119-0.768,1.856-1.975,2.03-3.32
			l9.812-76.873h-0.004C143.945,87.99,143.96,87.791,143.96,87.589 M99.689,179.094l-11.971,8.229v-64.515l15.634-9.027
			L99.689,179.094 M124.933,161.745l-12.367,8.5l5.673-65.056l15.019-8.672L124.933,161.745"/>
		<path fill="#D83920" d="M77.883,117.488l-0.002,0.002L26.093,87.589l51.788-29.899l0.002,0.002V47.427
			c0.822,0,1.643,0.213,2.381,0.638c-1.475-0.852-3.291-0.852-4.764,0L14.186,83.463c-1.472,0.852-2.381,2.424-2.381,4.125
			c0,0.202,0.016,0.401,0.04,0.604h-0.001l9.811,76.873c0.17,1.346,0.91,2.553,2.027,3.32l51.504,35.401
			c0.812,0.559,1.753,0.839,2.697,0.839h0.002V117.488 M30.832,161.745l-8.323-65.228l15.017,8.672l5.673,65.056L30.832,161.745
			 M68.219,187.442l-12.145-8.349l-3.665-65.312l15.809,9.126V187.442"/>
		<path fill="#F4D256" d="M110.738,28.908c-2.359-2.357-5.239-4.122-8.377-5.207c0.003-0.141,0.016-0.284,0.016-0.425
			c0-10.698-8.705-19.405-19.405-19.405c-7.729,0-14.545,4.518-17.648,11.344C50.282,17.244,38.557,30.287,38.557,45.78
			c0,17.017,13.844,30.863,30.862,30.863c8.73,0,17.066-3.773,22.887-10.216c0.937,0.119,1.875,0.186,2.812,0.186
			c5.777,0,11.425-2.267,15.621-6.463c4.172-4.172,6.47-9.72,6.47-15.619C117.208,38.628,114.911,33.08,110.738,28.908
			 M103.8,53.213c-3.149,3.151-7.773,4.344-12.071,3.115l-1.345,4.7l-0.002,0.014l-0.002,0.002l-0.001-0.002l-4.283-2.473
			c-4.028,5.253-10.071,8.26-16.677,8.26c-11.608,0-21.052-9.44-21.052-21.05c0-11.364,9.252-20.797,20.624-21.021l3.78-0.078
			l0.89-3.672c1.047-4.315,4.879-7.327,9.312-7.327c5.29,0,9.596,4.302,9.596,9.594c0,0.902-0.141,1.833-0.423,2.762l4.697,1.416
			l-0.937,4.874c0.071,0.005,0.14,0.004,0.209,0.002c0.079-0.001,0.158-0.003,0.239,0.005c2.863,0.287,5.438,1.5,7.448,3.509
			c2.317,2.321,3.596,5.405,3.596,8.685S106.119,50.896,103.8,53.213"/>
		<path fill="#FCF9E2" d="M91.729,56.329c4.297,1.229,8.921,0.036,12.071-3.115c2.319-2.317,3.598-5.405,3.598-8.685
			s-1.278-6.363-3.596-8.685c-2.01-2.008-4.585-3.222-7.448-3.509c-0.152-0.015-0.296,0.003-0.448-0.007l0.937-4.874l-4.697-1.416
			c0.282-0.929,0.423-1.86,0.423-2.762c0-5.292-4.306-9.594-9.596-9.594c-4.433,0-8.265,3.012-9.312,7.327l-0.89,3.672l-3.78,0.078
			C57.62,24.983,48.367,34.416,48.367,45.78c0,11.61,9.444,21.05,21.052,21.05c6.606,0,12.649-3.006,16.677-8.26l4.283,2.473
			l0.001,0.002l0.002-0.002l0.002-0.014L91.729,56.329z"/>
		<path fill="#C3C5C7" d="M45.477,65.233l-8.574,4.95c0.029,0.039,0.058,0.076,0.086,0.115l8.579-4.953
			C45.538,65.308,45.507,65.271,45.477,65.233 M106.847,63.248c-0.045,0.029-0.091,0.057-0.137,0.085l9.247,5.338
			c0.038-0.033,0.075-0.065,0.113-0.098L106.847,63.248"/>
		<path fill="#4F5050" d="M92.306,66.427c-3.894,4.31-8.914,7.426-14.424,9.016v10.106c6.741-1.453,13.03-4.613,18.241-9.15
			c3.597-0.114,7.143-0.836,10.484-2.125L93.18,66.522C92.889,66.496,92.597,66.464,92.306,66.427"/>
		<path fill="#939593" d="M53.125,71.982l-9.312,5.376c6.995,5.683,15.91,9.094,25.605,9.094c2.868,0,5.703-0.309,8.462-0.903
			V75.442c-2.727,0.787-5.573,1.2-8.462,1.2c-0.018,0-0.036,0-0.053,0c-0.006,0-0.012,0-0.018,0c-0.011,0-0.024,0-0.036,0
			c-0.007,0-0.014,0-0.021,0c-0.011,0-0.022,0-0.033,0c-0.007,0-0.014,0-0.021,0c-0.011,0-0.021,0-0.033,0c-0.007,0-0.015,0-0.022,0
			c-0.011,0-0.022,0-0.034,0c-0.006,0-0.013,0-0.019,0c-0.013,0-0.027,0-0.041,0c-0.004,0-0.008,0-0.013,0
			c-0.055,0-0.111-0.001-0.166-0.002c0,0-0.001,0-0.002,0c-0.018,0-0.036-0.001-0.053-0.001c-0.001,0-0.003,0-0.004,0
			c-0.018,0-0.036-0.001-0.053-0.001h-0.001C63.056,76.522,57.692,74.833,53.125,71.982"/>
		<path fill="#7D2117" d="M106.71,63.333c-3.46,2.13-7.444,3.262-11.496,3.28h0c-0.014,0-0.029,0-0.043,0c-0.003,0-0.007,0-0.01,0
			c-0.015,0-0.03,0-0.044,0c-0.645,0-1.292-0.032-1.937-0.09l13.426,7.751c3.377-1.303,6.545-3.184,9.35-5.603L106.71,63.333"/>
		<path fill="#A52C19" d="M45.568,65.346l-8.579,4.953c1.984,2.618,4.277,4.99,6.825,7.06l9.312-5.376
			C50.259,70.193,47.705,67.946,45.568,65.346"/>
		<path fill="#BBA243" d="M69.312,76.643c0.011,0,0.024,0,0.036,0C69.335,76.643,69.324,76.643,69.312,76.643 M69.258,76.642
			c0.011,0,0.022,0,0.033,0C69.28,76.642,69.269,76.642,69.258,76.642 M69.205,76.642c0.011,0,0.021,0,0.033,0
			C69.227,76.642,69.216,76.642,69.205,76.642 M69.149,76.642c0.011,0,0.022,0,0.034,0C69.171,76.642,69.16,76.642,69.149,76.642
			 M69.09,76.641c0.013,0,0.027,0,0.041,0C69.117,76.641,69.104,76.641,69.09,76.641 M68.912,76.639
			c0.055,0,0.111,0.001,0.166,0.002C69.022,76.64,68.967,76.639,68.912,76.639 M68.856,76.638c0.018,0,0.036,0,0.053,0.001
			C68.892,76.638,68.874,76.638,68.856,76.638 M68.799,76.636c0.018,0,0.036,0.001,0.053,0.001
			C68.834,76.637,68.816,76.637,68.799,76.636 M95.214,66.613c-0.015,0-0.029,0-0.043,0C95.185,66.613,95.2,66.613,95.214,66.613
			 M92.306,66.427c-5.821,6.443-14.157,10.216-22.887,10.216c-0.018,0-0.036,0-0.053,0c0.018,0,0.036,0,0.053,0
			c2.89,0,5.736-0.414,8.462-1.2C83.392,73.853,88.412,70.737,92.306,66.427c0.292,0.037,0.583,0.069,0.875,0.096
			c0.646,0.059,1.292,0.09,1.937,0.09c0.014,0,0.029,0,0.044,0c-0.015,0-0.029,0-0.044,0C94.181,66.613,93.242,66.546,92.306,66.427
			 M45.486,65.228l-0.009,0.005c0.03,0.038,0.061,0.075,0.091,0.112c2.137,2.6,4.691,4.847,7.558,6.636l0,0
			c4.567,2.851,9.93,4.541,15.672,4.654C59.399,76.45,51.026,72.035,45.486,65.228 M106.826,63.236
			c-3.489,2.18-7.511,3.358-11.612,3.377c4.051-0.018,8.035-1.15,11.496-3.28c0.046-0.028,0.091-0.056,0.137-0.085L106.826,63.236"
			/>
		<path fill="#C0C1BC" d="M118.239,105.189l-5.673,65.056l12.367-8.5l8.325-65.228L118.239,105.189z M87.718,187.323l11.971-8.229
			l3.663-65.312l-15.634,9.027V187.323z"/>
		<path fill="#333333" d="M201.937,131.792H187.19v33.274h-14.368V77.849h23.191c12.729,0,17.393,1.26,22.183,4.159
			c7.688,4.537,11.973,12.352,11.973,21.93C230.168,121.079,217.691,131.792,201.937,131.792z M210.633,93.855
			c-2.647-2.772-6.428-4.285-12.1-4.285H187.19v30.627h11.343c10.713,0,15.629-5.042,15.629-15.377
			C214.163,100.031,213.028,96.376,210.633,93.855z"/>
		<path fill="#333333" d="M261.429,166.705c-17.268,0-28.106-12.982-28.106-33.4s10.965-33.526,27.854-33.526
			c18.148,0,28.484,13.486,28.484,33.652C289.662,153.976,278.696,166.705,261.429,166.705z M261.303,110.24
			c-8.823,0-12.604,6.68-12.604,22.183c0,18.527,4.664,23.947,12.982,23.947c8.192,0,12.729-6.681,12.729-22.688
			C274.411,115.66,269.37,110.24,261.303,110.24z"/>
		<path fill="#333333" d="M328.379,166.327c-5.419,0-10.713-1.765-15.124-5.168c0,0.504,0.252,3.151,0.252,6.302v21.301
			l-13.36,3.402v-74.362c0-7.94-0.378-11.217-1.26-15.881l12.729-2.269c0.63,2.143,0.882,3.907,1.009,7.814
			c4.033-4.916,10.335-7.562,17.015-7.562c12.855,0,24.073,9.705,24.073,31.887C353.713,152.967,344.638,166.327,328.379,166.327z
			 M326.994,111.375c-5.042,0-9.705,2.269-13.486,6.554v31.761c3.277,3.277,7.688,5.672,11.848,5.672
			c9.326,0,13.485-6.932,13.485-22.057C338.84,119.062,336.068,111.375,326.994,111.375z"/>
		<path fill="#333333" d="M389.139,166.705c-17.394,0-27.099-12.226-27.099-32.771c0-23.19,13.864-34.282,28.106-34.282
			c6.933,0,11.974,1.639,17.646,6.932l-6.932,9.201c-3.781-3.403-7.059-4.916-10.714-4.916c-4.411,0-8.066,2.269-10.083,6.428
			c-1.891,3.907-2.646,9.831-2.646,17.771c0,8.696,1.387,14.242,4.285,17.394c2.017,2.269,5.042,3.655,8.444,3.655
			c4.412,0,8.697-2.143,12.856-6.303l6.554,8.445C403.759,164.058,397.709,166.705,389.139,166.705z"/>
		<path fill="#333333" d="M441.447,166.705c-17.268,0-28.106-12.982-28.106-33.4s10.966-33.526,27.854-33.526
			c18.149,0,28.484,13.486,28.484,33.652C469.679,153.976,458.714,166.705,441.447,166.705z M441.321,110.24
			c-8.822,0-12.604,6.68-12.604,22.183c0,18.527,4.663,23.947,12.981,23.947c8.192,0,12.73-6.681,12.73-22.688
			C454.429,115.66,449.387,110.24,441.321,110.24z"/>
		<path fill="#333333" d="M510.407,113.391c-1.387-0.504-2.395-0.882-3.907-0.882c-5.798,0-10.713,4.285-11.974,9.453v43.105
			h-13.864v-44.996c0-8.066-0.882-13.234-2.269-17.141l12.729-3.277c1.513,2.899,2.396,6.554,2.396,10.083
			c5.041-6.932,10.083-10.209,16.259-10.209c2.017,0,3.276,0.252,4.915,1.008L510.407,113.391z"/>
		<path fill="#333333" d="M554.648,165.066v-42.349c0-8.697-2.017-11.091-7.311-11.091c-4.033,0-9.831,3.025-13.99,7.184v46.256
			h-13.612v-46.886c0-6.68-0.63-10.587-2.395-15.125l12.604-3.529c1.513,2.899,2.269,5.672,2.269,9.075
			c6.807-5.798,12.73-8.823,19.536-8.823c9.831,0,16.637,5.924,16.637,17.646v47.642H554.648z"/>
		<circle fill="#333333" cx="180.006" cy="149.104" r="7.184"/>
	</g>
</g>
<g id="Layer_5">
	<g>
		<path fill="#3A3A3C" d="M590.917,75.562h15.835l16.485,59.1c2.508,8.836,3.561,15.83,3.561,15.83s1.186-7.258,3.297-14.775
			l17.021-60.154h15.959l7.784,90.492h-10.817l-5.274-66.351c-0.402-5.801-0.663-15.433-0.663-15.433s-1.848,8.312-3.559,14.248
			l-19.391,67.536h-9.238l-17.939-64.243c-2.902-10.151-4.489-17.678-4.489-17.678s-0.657,12.003-1.055,17.551l-5.008,64.37H583
			L590.917,75.562z"/>
		<path fill="#3A3A3C" d="M681.809,107.484c8.706-5.801,18.066-8.837,27.57-8.837c9.104,0,15.436,3.561,18.204,10.289
			c1.452,3.566,1.585,8.573,1.452,14.508l-0.529,21.636c-0.263,10.686,0.398,13.455,5.277,16.097l-5.277,7.386
			c-4.487-1.451-7.781-5.014-8.969-9.63c-6.333,6.334-11.473,8.84-19.001,8.84c-16.222,0-21.104-9.899-21.104-18.739
			c0-14.902,12.8-23.605,34.829-23.605c2.771,0,4.614,0.128,4.614,0.128v-4.617c0-5.805-0.262-8.18-2.11-10.289
			c-2.11-2.374-4.747-3.556-8.836-3.556c-7.394,0-16.754,3.953-20.973,7.778L681.809,107.484z M718.615,132.683
			c-1.716-0.135-3.302-0.263-5.144-0.263c-16.627,0-22.562,5.67-22.562,15.691c0,7.785,3.828,12.007,11.349,12.007
			c6.727,0,12.922-4.09,15.958-10.287L718.615,132.683z"/>
		<path fill="#3A3A3C" d="M740.814,71.607l10.294-1.982c0,0,1.71,5.541,1.71,15.565v80.863h-10.286V85.056
			C742.532,76.483,740.814,71.607,740.814,71.607z M778.281,100.362h12.927l-25.855,28.493l31.793,37.198h-13.719l-30.21-37.198
			L778.281,100.362z"/>
		<path fill="#3A3A3C" d="M842.3,152.735l3.957,6.598c-5.805,5.272-13.721,8.174-22.164,8.174
			c-18.205,0-29.155-13.191-29.155-34.959c0-11.079,2.377-18.199,7.919-24.797c5.276-6.202,11.735-9.104,19.655-9.104
			c7.121,0,13.326,2.502,17.809,7.124c5.669,5.804,7.252,12.007,7.525,27.699v1.454h-41.032v1.582c0,6.199,0.792,10.95,3.03,14.379
			c3.701,5.672,9.762,8.048,16.36,8.048C832.537,158.933,837.68,156.95,842.3,152.735z M806.814,127.143h30.078
			c-0.136-7.126-1.054-11.479-3.04-14.641c-2.238-3.566-6.855-5.813-11.873-5.813C812.621,106.688,807.344,113.555,806.814,127.143z
			"/>
		<path fill="#3A3A3C" d="M855.796,101.421l10.29-2.774c0,0,2.5,5.145,2.113,10.683c4.747-6.729,11.739-10.95,18.465-10.95
			c1.708,0,3.56,0.662,3.56,0.662l-4.217,11.21c-0.666-0.261-1.852-0.524-2.909-0.524c-3.953,0-7.908,1.716-10.948,4.751
			c-3.029,3.031-3.825,5.012-3.825,10.423v41.152h-10.29v-50.652C858.035,105.771,855.796,101.421,855.796,101.421z"/>
	</g>
</g>
<g id="Goggles" display="none">
	<g display="inline">
		<g>
			<path fill="#333333" d="M208.31,61.014V39.285c0-3.921-0.45-4.693-2.699-4.693c-1.607,0-3.858,1.092-5.722,2.764v23.659h-8.166
				V39.606c0-4.115-0.578-5.08-2.958-5.08c-1.607,0-3.792,0.837-5.656,2.507v23.98h-8.423V38.062c0-4.756-0.322-6.813-1.22-8.421
				l7.779-2.122c0.579,0.9,0.835,1.672,1.157,3.342c2.249-2.186,5.015-3.342,8.036-3.342c2.701,0,4.95,0.9,6.685,2.701
				c0.45,0.448,0.9,1.029,1.287,1.607c3.021-3.086,5.722-4.308,9.321-4.308c2.572,0,5.015,0.772,6.494,2.057
				c1.864,1.607,2.444,3.536,2.444,8.036v23.402H208.31z"/>
			<path fill="#333333" d="M245.859,57.156c-2.508,2.829-5.787,4.565-10.865,4.565c-8.936,0-14.788-6.686-14.788-17.037
				c0-10.35,5.915-17.23,14.788-17.23c4.693,0,8.357,1.607,11.187,4.952c2.636,3.086,3.793,6.685,3.793,12.022
				C249.973,50.084,248.688,53.942,245.859,57.156z M238.851,35.555c-0.837-1.092-2.188-1.736-3.729-1.736
				c-2.057,0-3.729,1.286-4.436,3.343c-0.579,1.735-0.9,4.051-0.9,7.329c0,3.795,0.387,6.622,1.094,8.294
				c0.771,1.8,2.7,2.701,4.371,2.701c3.729,0,5.337-3.344,5.337-11.123C240.587,39.928,240.008,37.034,238.851,35.555z"/>
			<path fill="#333333" d="M274.856,61.014h-24.237v-5.336l15.492-21.537h-14.207v-6.043h24.431v5.916l-14.529,21.022h15.107
				L274.856,61.014z"/>
			<path fill="#333333" d="M283.792,24.368c-2.893,0-5.271-2.377-5.271-5.334s2.443-5.337,5.4-5.337
				c2.893,0,5.208,2.379,5.208,5.337S286.75,24.368,283.792,24.368z M279.485,61.014V28.676l8.616-1.35v33.688H279.485z"/>
			<path fill="#333333" d="M301.987,61.786c-3.665,0-6.622-1.735-7.651-4.501c-0.643-1.67-0.771-2.699-0.771-7.392V25.334
				c0-4.308-0.128-6.944-0.45-9.901l8.808-1.992c0.322,1.8,0.45,3.921,0.45,8.551v25.651c0,5.656,0.065,6.428,0.579,7.329
				c0.321,0.579,1.028,0.9,1.736,0.9c0.32,0,0.514,0,0.964-0.128l1.479,5.143C305.651,61.464,303.85,61.786,301.987,61.786z"/>
			<path fill="#333333" d="M316.196,61.786c-3.664,0-6.622-1.735-7.65-4.501c-0.644-1.67-0.772-2.699-0.772-7.392V25.334
				c0-4.308-0.128-6.944-0.449-9.901l8.807-1.992c0.322,1.8,0.45,3.921,0.45,8.551v25.651c0,5.656,0.065,6.428,0.579,7.329
				c0.321,0.579,1.028,0.9,1.737,0.9c0.319,0,0.514,0,0.964-0.128l1.479,5.143C319.861,61.464,318.06,61.786,316.196,61.786z"/>
			<path fill="#333333" d="M347.181,62.687c-1.992-0.837-3.792-2.316-4.628-3.986c-0.644,0.642-1.35,1.285-1.993,1.735
				c-1.607,1.157-3.922,1.801-6.622,1.801c-7.329,0-11.313-3.729-11.313-10.287c0-7.715,5.335-11.315,15.814-11.315
				c0.644,0,1.223,0,1.929,0.063v-1.351c0-3.664-0.706-4.885-3.857-4.885c-2.765,0-5.979,1.351-9.515,3.728l-3.664-6.172
				c1.735-1.092,3.021-1.735,5.335-2.699c3.214-1.35,5.979-1.929,9.001-1.929c5.529,0,9.322,2.057,10.607,5.722
				c0.45,1.35,0.644,2.379,0.579,5.915l-0.193,11.057c-0.063,3.601,0.193,5.143,3.086,7.329L347.181,62.687z M339.853,46.613
				c-5.979,0-8.036,1.094-8.036,5.015c0,2.571,1.607,4.308,3.793,4.308c1.607,0,3.214-0.837,4.5-2.25l0.13-7.072H339.853z"/>
		</g>
	</g>
	<g display="inline">
		<path fill="#333333" d="M223.112,165.066l-18.023-34.534l-17.393,34.534h-17.771l26.72-46.76l-23.443-40.458h17.645l13.99,26.972
			l13.738-26.972h17.14l-22.182,39.45l26.97,47.768H223.112z"/>
		<path fill="#333333" d="M239.247,137.212v-12.855h27.603v12.855H239.247z"/>
		<path fill="#333333" d="M321.802,165.066l-7.562-13.486c-6.05-10.713-10.083-16.763-14.873-21.553
			c-1.639-1.638-2.898-2.521-5.672-2.646v37.686h-14.241V77.849h26.593c19.536,0,28.359,11.343,28.359,24.955
			c0,12.478-8.066,23.947-21.679,23.947c3.15,1.639,8.948,10.083,13.485,17.394l12.856,20.922H321.802z M301.636,89.57h-7.94v27.602
			h7.437c7.562,0,11.596-1.008,14.242-3.655c2.395-2.395,3.907-6.05,3.907-10.587C319.282,94.107,314.493,89.57,301.636,89.57z"/>
		<path fill="#333333" d="M390.246,167.713c-3.907-1.512-7.185-4.537-8.697-8.57c-5.167,5.798-10.713,7.814-17.519,7.814
			c-14.621,0-21.175-8.066-21.175-19.158c0-14.746,11.092-22.183,31.51-22.183h4.285v-3.402c0-7.311-1.261-11.218-8.823-11.218
			c-8.192,0-17.015,5.798-19.031,7.311l-6.176-9.957c9.579-6.05,17.52-8.697,27.098-8.697c9.957,0,16.638,3.655,19.41,10.587
			c1.135,2.772,1.135,6.176,1.009,15.628l-0.253,18.276c-0.126,8.57,0.631,11.343,5.546,14.746L390.246,167.713z M375.877,134.943
			c-13.864,0-18.023,4.033-18.023,12.1c0,6.05,3.276,9.831,8.822,9.831c4.411,0,8.696-2.646,11.47-6.68l0.252-15.125
			C378.146,135.069,376.759,134.943,375.877,134.943z"/>
		<path fill="#333333" d="M435.371,166.453c-5.294,15.376-9.831,23.064-24.829,25.837l-4.538-8.948
			c8.697-2.395,13.612-6.05,17.268-18.275h-4.411c-1.765-7.185-4.159-14.116-6.05-19.788L398.316,102.3l14.116-2.395l11.721,38.82
			c1.135,3.781,3.277,13.36,3.529,14.368c0.126-0.504,2.395-9.579,4.79-17.268l10.587-34.534h14.872L435.371,166.453z"/>
		<path fill="#333333" d="M521.332,166.201c-12.226,0-21.678-3.907-28.484-12.353c-6.68-8.192-9.705-18.023-9.705-31.762
			c0-17.896,5.42-30.375,16.386-38.567c6.302-4.79,13.107-6.806,21.552-6.806c9.957,0,18.78,3.025,25.964,9.201l-7.311,9.074
			c-6.049-4.663-11.721-6.68-18.401-6.68c-16.133,0-22.057,14.116-22.057,34.534c0,12.226,2.27,20.796,6.429,25.712
			c3.528,4.159,9.83,6.554,16.511,6.554c4.537,0,8.318-1.008,11.596-2.772v-22.688h-14.873l-2.017-11.847h31.636v41.088
			C540.616,163.68,531.037,166.201,521.332,166.201z"/>
		<path fill="#333333" d="M587.378,166.705c-17.267,0-28.106-12.982-28.106-33.4s10.966-33.526,27.854-33.526
			c18.149,0,28.484,13.486,28.484,33.652C615.611,153.976,604.646,166.705,587.378,166.705z M587.252,110.24
			c-8.822,0-12.604,6.68-12.604,22.183c0,18.527,4.663,23.947,12.981,23.947c8.192,0,12.729-6.681,12.729-22.688
			C600.36,115.66,595.319,110.24,587.252,110.24z"/>
		<path fill="#333333" d="M675.86,111.5c-2.646,0-4.537-0.504-4.915-0.63c0.378,0.378,4.159,4.538,4.159,11.091
			c0,11.091-9.201,19.536-24.199,19.536c-4.537,1.639-8.57,4.033-8.57,6.05c0,2.396,0.882,2.647,15.881,2.647
			c10.209,0,21.174,5.167,21.174,18.149c0,13.611-11.344,20.922-28.358,20.922c-16.511,0-28.484-5.42-28.484-17.394
			c0-2.646,1.008-6.05,1.26-6.806h13.108c-0.252,0.504-1.009,2.772-1.009,4.537c0,5.924,5.042,9.201,13.99,9.201
			c9.831,0,15.125-4.033,15.125-9.957c0-6.933-5.798-8.823-17.646-8.823c-17.141,0-20.922-3.402-20.922-9.704
			s5.293-8.823,12.1-10.966c-9.579-2.772-14.494-8.948-14.494-18.023c0-12.982,10.209-21.553,25.459-21.553
			c9.075,0,14.242,3.277,19.41,3.277c4.159,0,8.066-1.512,11.596-4.411l6.428,8.697C683.422,110.366,680.145,111.5,675.86,111.5z
			 M649.392,110.24c-7.058,0-10.965,3.907-10.965,11.091c0,7.31,4.159,10.712,10.965,10.712c7.185,0,10.966-3.78,10.966-10.839
			C660.358,114.021,656.703,110.24,649.392,110.24z"/>
		<path fill="#333333" d="M738.377,111.5c-2.646,0-4.537-0.504-4.915-0.63c0.378,0.378,4.159,4.538,4.159,11.091
			c0,11.091-9.201,19.536-24.199,19.536c-4.537,1.639-8.57,4.033-8.57,6.05c0,2.396,0.882,2.647,15.881,2.647
			c10.209,0,21.174,5.167,21.174,18.149c0,13.611-11.344,20.922-28.358,20.922c-16.511,0-28.484-5.42-28.484-17.394
			c0-2.646,1.008-6.05,1.26-6.806h13.108c-0.252,0.504-1.009,2.772-1.009,4.537c0,5.924,5.042,9.201,13.99,9.201
			c9.831,0,15.125-4.033,15.125-9.957c0-6.933-5.798-8.823-17.646-8.823c-17.141,0-20.922-3.402-20.922-9.704
			s5.293-8.823,12.1-10.966c-9.579-2.772-14.494-8.948-14.494-18.023c0-12.982,10.209-21.553,25.459-21.553
			c9.075,0,14.242,3.277,19.41,3.277c4.159,0,8.066-1.512,11.596-4.411l6.428,8.697C745.94,110.366,742.663,111.5,738.377,111.5z
			 M711.91,110.24c-7.058,0-10.965,3.907-10.965,11.091c0,7.31,4.159,10.712,10.965,10.712c7.185,0,10.966-3.78,10.966-10.839
			C722.875,114.021,719.22,110.24,711.91,110.24z"/>
		<path fill="#333333" d="M767.873,166.453c-13.99,0-13.99-12.604-13.99-18.023V94.107c0-8.697-0.378-13.36-1.26-18.654
			l14.242-3.151c1.008,3.907,1.134,9.201,1.134,17.519v54.07c0,8.571,0.379,9.957,1.387,11.47c0.756,1.135,2.898,1.765,4.537,1.009
			l2.269,8.57C773.67,165.948,771.024,166.453,767.873,166.453z"/>
		<path fill="#333333" d="M795.855,136.96v1.008c0,8.823,3.277,18.15,15.755,18.15c5.924,0,11.091-2.143,15.881-6.303l5.419,8.445
			c-6.68,5.671-14.368,8.444-22.938,8.444c-18.023,0-29.367-12.982-29.367-33.4c0-11.218,2.396-18.653,7.94-24.955
			c5.168-5.924,11.47-8.571,19.536-8.571c6.302,0,12.1,1.639,17.52,6.554c5.545,5.042,8.318,12.855,8.318,27.728v2.899H795.855z
			 M808.081,110.24c-7.814,0-12.1,6.176-12.1,16.511h23.569C819.55,116.416,815.012,110.24,808.081,110.24z"/>
		<path fill="#333333" d="M863.416,166.831c-7.814,0-16.259-2.521-24.452-7.059l4.916-9.957c5.672,3.277,13.486,6.681,20.67,6.681
			c6.05,0,10.335-3.655,10.335-8.949c0-4.915-3.15-7.437-10.335-8.948l-7.688-1.639c-9.578-2.017-15.25-8.57-15.25-17.519
			c0-11.974,9.579-20.292,23.695-20.292c8.696,0,15.628,2.646,21.048,5.545l-4.537,9.579c-5.924-3.151-10.588-4.664-15.629-4.664
			c-5.924,0-9.705,3.277-9.705,8.192c0,3.907,2.143,5.923,8.57,7.562l7.94,2.017c12.856,3.277,16.259,10.335,16.259,17.771
			C889.252,158.009,878.792,166.831,863.416,166.831z"/>
	</g>
	<g display="inline">
		<path opacity="0.6" fill="#F072AB" d="M131.299,91.644c-1.453-1.458-5.194-4.807-8.072-6.355L17.435,25.192
			c-3.475-1.71-8.411-2.518-12.203,1.279C1.429,30.268,2.007,34.95,3.76,38.34l60.097,105.817c1.45,2.261,5.078,6.934,6.543,8.381
			c16.822,16.815,44.077,16.82,60.899,0C148.123,135.727,148.123,108.455,131.299,91.644z"/>
		<path opacity="0.8" fill="#26A9E0" d="M97.63,26.477c-3.789-3.803-9-2.995-12.066-1.356L-19.471,84.756
			c-3.214,2.05-7.514,5.43-8.969,6.888c-16.822,16.811-16.822,44.083,0,60.894c16.822,16.815,44.083,16.815,60.893,0
			c1.464-1.447,4.687-5.735,5.896-7.341L98.911,38.634C100.874,35.578,101.424,30.268,97.63,26.477z"/>
		<path fill="#26A9E0" d="M-28.44,152.538c-16.822-16.812-16.822-44.083,0-60.894c16.822-16.822,44.083-16.822,60.893,0
			c16.819,16.811,16.819,44.083,0,60.894C15.643,169.354-11.618,169.354-28.44,152.538z"/>
		<path fill="#F072AB" d="M131.344,152.538c-16.823,16.82-44.08,16.815-60.902,0c-16.82-16.812-16.82-44.077,0-60.9
			c16.822-16.816,44.08-16.816,60.902,0.006C148.166,108.455,148.166,135.727,131.344,152.538z"/>
		<g>
			<path fill="#FFFFFF" d="M117.018,139.99c-8.907,8.896-23.339,8.896-32.242,0c-8.91-8.914-8.91-23.34,0-32.253
				c8.902-8.902,23.334-8.902,32.242,0.011C125.919,116.65,125.919,131.076,117.018,139.99z"/>
			<path fill="#F072AB" d="M100.883,111.849c-9.292,0-16.831,7.993-16.831,11.229c0,0.825,0.494,1.604,1.369,2.306
				c0.841-1.711,1.896-3.338,3.33-4.768c1.547-1.548,3.315-2.734,5.191-3.602c-3.763,3.823-3.752,9.962,0.056,13.759
				c3.81,3.814,9.993,3.814,13.815,0c3.814-3.819,3.814-10.006,0-13.82c-0.319-0.32-0.679-0.579-1.033-0.842
				c2.752,0.829,5.347,2.331,7.522,4.504c1.182,1.172,2.086,2.496,2.864,3.871c0.328-0.449,0.547-0.92,0.547-1.408
				C117.713,119.842,110.183,111.849,100.883,111.849z M106.887,121.283c0,1.43-1.161,2.586-2.591,2.586
				c-1.435,0-2.592-1.156-2.592-2.586c0-1.43,1.157-2.591,2.592-2.591C105.726,118.692,106.887,119.853,106.887,121.283z"/>
		</g>
		<g>
			<path fill="#FFFFFF" d="M16.517,139.99c-8.901,8.896-23.345,8.896-32.241,0c-8.913-8.914-8.913-23.34,0-32.253
				c8.896-8.902,23.34-8.902,32.241,0.011C25.417,116.65,25.417,131.076,16.517,139.99z"/>
			<path fill="#26A9E0" d="M0.392,111.849c-9.3,0-16.833,7.993-16.833,11.229c0,0.825,0.481,1.604,1.346,2.306
				c0.855-1.711,1.918-3.338,3.333-4.768c1.547-1.543,3.312-2.729,5.188-3.595c-3.749,3.825-3.735,9.956,0.056,13.753
				c3.814,3.814,10.007,3.814,13.821,0c3.822-3.819,3.822-10.006,0-13.82c-0.325-0.327-0.689-0.585-1.046-0.854
				c2.765,0.831,5.371,2.333,7.554,4.516c1.169,1.172,2.075,2.496,2.866,3.871c0.314-0.449,0.539-0.92,0.539-1.408
				C17.214,119.842,9.68,111.849,0.392,111.849z M6.384,121.283c0,1.43-1.158,2.586-2.591,2.586c-1.423,0-2.594-1.156-2.594-2.586
				c0-1.43,1.171-2.591,2.594-2.591C5.226,118.692,6.384,119.853,6.384,121.283z"/>
		</g>
	</g>
</g>
<g id="Thimble" display="none">
	<g display="inline">
		<g>
			<path fill="#333333" d="M208.31,61.014V39.285c0-3.921-0.45-4.693-2.699-4.693c-1.607,0-3.858,1.092-5.722,2.764v23.659h-8.166
				V39.606c0-4.115-0.578-5.08-2.958-5.08c-1.607,0-3.792,0.837-5.656,2.507v23.98h-8.423V38.062c0-4.756-0.322-6.813-1.22-8.421
				l7.779-2.122c0.579,0.9,0.835,1.672,1.157,3.342c2.249-2.186,5.015-3.342,8.036-3.342c2.701,0,4.95,0.9,6.685,2.701
				c0.45,0.448,0.9,1.029,1.287,1.607c3.021-3.086,5.722-4.308,9.321-4.308c2.572,0,5.015,0.772,6.494,2.057
				c1.864,1.607,2.444,3.536,2.444,8.036v23.402H208.31z"/>
			<path fill="#333333" d="M245.859,57.156c-2.508,2.829-5.787,4.565-10.865,4.565c-8.936,0-14.788-6.686-14.788-17.037
				c0-10.35,5.915-17.23,14.788-17.23c4.693,0,8.357,1.607,11.187,4.952c2.636,3.086,3.793,6.685,3.793,12.022
				C249.973,50.084,248.688,53.942,245.859,57.156z M238.851,35.555c-0.837-1.092-2.188-1.736-3.729-1.736
				c-2.057,0-3.729,1.286-4.436,3.343c-0.579,1.735-0.9,4.051-0.9,7.329c0,3.795,0.387,6.622,1.094,8.294
				c0.771,1.8,2.7,2.701,4.371,2.701c3.729,0,5.337-3.344,5.337-11.123C240.587,39.928,240.008,37.034,238.851,35.555z"/>
			<path fill="#333333" d="M274.856,61.014h-24.237v-5.336l15.492-21.537h-14.207v-6.043h24.431v5.916l-14.529,21.022h15.107
				L274.856,61.014z"/>
			<path fill="#333333" d="M283.792,24.368c-2.893,0-5.271-2.377-5.271-5.334s2.443-5.337,5.4-5.337
				c2.893,0,5.208,2.379,5.208,5.337S286.75,24.368,283.792,24.368z M279.485,61.014V28.676l8.616-1.35v33.688H279.485z"/>
			<path fill="#333333" d="M301.987,61.786c-3.665,0-6.622-1.735-7.651-4.501c-0.643-1.67-0.771-2.699-0.771-7.392V25.334
				c0-4.308-0.128-6.944-0.45-9.901l8.808-1.992c0.322,1.8,0.45,3.921,0.45,8.551v25.651c0,5.656,0.065,6.428,0.579,7.329
				c0.321,0.579,1.028,0.9,1.736,0.9c0.32,0,0.514,0,0.964-0.128l1.479,5.143C305.651,61.464,303.85,61.786,301.987,61.786z"/>
			<path fill="#333333" d="M316.196,61.786c-3.664,0-6.622-1.735-7.65-4.501c-0.644-1.67-0.772-2.699-0.772-7.392V25.334
				c0-4.308-0.128-6.944-0.449-9.901l8.807-1.992c0.322,1.8,0.45,3.921,0.45,8.551v25.651c0,5.656,0.065,6.428,0.579,7.329
				c0.321,0.579,1.028,0.9,1.737,0.9c0.319,0,0.514,0,0.964-0.128l1.479,5.143C319.861,61.464,318.06,61.786,316.196,61.786z"/>
			<path fill="#333333" d="M347.181,62.687c-1.992-0.837-3.792-2.316-4.628-3.986c-0.644,0.642-1.35,1.285-1.993,1.735
				c-1.607,1.157-3.922,1.801-6.622,1.801c-7.329,0-11.313-3.729-11.313-10.287c0-7.715,5.335-11.315,15.814-11.315
				c0.644,0,1.223,0,1.929,0.063v-1.351c0-3.664-0.706-4.885-3.857-4.885c-2.765,0-5.979,1.351-9.515,3.728l-3.664-6.172
				c1.735-1.092,3.021-1.735,5.335-2.699c3.214-1.35,5.979-1.929,9.001-1.929c5.529,0,9.322,2.057,10.607,5.722
				c0.45,1.35,0.644,2.379,0.579,5.915l-0.193,11.057c-0.063,3.601,0.193,5.143,3.086,7.329L347.181,62.687z M339.853,46.613
				c-5.979,0-8.036,1.094-8.036,5.015c0,2.571,1.607,4.308,3.793,4.308c1.607,0,3.214-0.837,4.5-2.25l0.13-7.072H339.853z"/>
		</g>
	</g>
	<g display="inline">
		<path fill="#333333" d="M224.104,89.948h-21.931v75.118h-14.495V89.948h-22.056v-12.1h60.372L224.104,89.948z"/>
		<path fill="#333333" d="M267.212,165.066v-43.357c0-7.94-2.773-10.209-8.066-10.209c-4.916,0-10.84,3.151-15.377,7.814v45.751
			h-13.99V89.192c0-5.672-0.504-10.587-1.261-13.864l13.99-3.025c0.883,3.655,1.261,8.823,1.261,14.999v13.612
			c0,3.529-0.252,6.554-0.252,7.185c6.302-5.672,12.729-8.319,19.536-8.319c7.562,0,13.359,3.655,15.502,7.814
			c1.639,3.151,2.143,6.05,2.143,12.478v44.996H267.212z"/>
		<path fill="#333333" d="M302.527,91.838c-5.042,0-8.949-4.159-8.949-9.201c0-5.167,4.033-9.327,9.201-9.327
			c4.915,0,9.074,4.033,9.074,9.327C311.853,87.679,307.694,91.838,302.527,91.838z M295.594,165.066V102.3l13.99-2.521v65.288
			H295.594z"/>
		<path fill="#333333" d="M392.272,165.066v-44.113c0-7.436-1.638-9.579-6.554-9.579c-4.663,0-9.074,3.151-13.486,7.31v46.382
			h-13.233v-43.735c0-7.437-1.639-9.831-6.933-9.831c-3.906,0-8.444,2.017-13.107,6.302v47.264h-13.486v-45.751
			c0-7.94-0.756-12.73-2.269-16.133l12.604-3.529c1.261,2.017,2.017,4.664,2.27,8.192c5.041-5.167,10.965-8.066,16.889-8.066
			c5.672,0,10.587,1.891,15.251,9.327c6.176-6.302,12.226-9.327,19.031-9.327c10.461,0,16.637,5.42,16.637,18.654v46.634H392.272z"
			/>
		<path fill="#333333" d="M449.374,166.453c-6.302,0-11.595-2.521-15.502-7.311c-0.631,3.403-0.883,4.411-1.765,5.924h-12.73
			c1.135-2.898,1.639-5.672,1.639-14.242v-60.12c0-7.31-0.504-11.848-1.639-15.376l14.369-3.151
			c0.756,4.537,1.008,7.688,1.008,12.729v14.873c0,3.655-0.252,5.672-0.378,6.05l0.504,0.126c4.411-4.285,9.075-6.176,15.125-6.176
			c15.25,0,24.829,12.478,24.829,32.391C474.833,152.589,464.247,166.453,449.374,166.453z M446.979,111.5
			c-5.798,0-9.579,3.277-12.1,6.428v31.131c2.773,2.898,6.807,5.546,11.848,5.546c8.696,0,12.478-6.302,12.478-22.309
			C459.205,120.827,456.936,111.5,446.979,111.5z"/>
		<path fill="#333333" d="M500.169,166.453c-13.99,0-13.99-12.604-13.99-18.023V94.107c0-8.697-0.378-13.36-1.26-18.654
			l14.242-3.151c1.008,3.907,1.134,9.201,1.134,17.519v54.07c0,8.571,0.378,9.957,1.387,11.47c0.756,1.135,2.898,1.765,4.537,1.009
			l2.269,8.57C505.967,165.948,503.321,166.453,500.169,166.453z"/>
		<path fill="#333333" d="M528.152,136.96v1.008c0,8.823,3.277,18.15,15.755,18.15c5.924,0,11.091-2.143,15.881-6.303l5.419,8.445
			c-6.68,5.671-14.368,8.444-22.938,8.444c-18.023,0-29.367-12.982-29.367-33.4c0-11.218,2.396-18.653,7.94-24.955
			c5.168-5.924,11.47-8.571,19.536-8.571c6.302,0,12.1,1.639,17.52,6.554c5.546,5.042,8.318,12.855,8.318,27.728v2.899H528.152z
			 M540.377,110.24c-7.814,0-12.1,6.176-12.1,16.511h23.569C551.847,116.416,547.31,110.24,540.377,110.24z"/>
	</g>
	<g display="inline">
		<path fill="#A3B5BE" d="M141.802,149.958c-1.394-1.393-8.318-5.183-8.318-5.183S122.553,43.1,120.555,39.809
			c-1.998-3.291-23.586-24.369-55.174-24.369c-25.97-0.002-50.849,18.932-52.713,24.369C10.734,45.447-0.27,144.765-0.27,144.765
			s-6.935,3.45-8.008,5.193c-1.073,1.743-3.02,9.327-1.767,14.168c1.251,4.841,40.171,19.355,76.759,19.355
			c34.663,0,74.572-15.273,76.819-19.355C144.941,161.57,143.192,151.352,141.802,149.958z"/>
		<path fill="#FFFFFF" d="M42.53,64.796c0,3.43-2.787,6.2-6.202,6.2c-3.418,0-6.202-2.77-6.202-6.2c0-3.418,2.784-6.189,6.202-6.189
			C39.743,58.607,42.53,61.378,42.53,64.796z"/>
		<path fill="#FFFFFF" d="M70.453,58.604c0,3.43-2.784,6.196-6.205,6.196c-3.403,0-6.19-2.766-6.19-6.196
			c0-3.419,2.787-6.191,6.19-6.191C67.669,52.414,70.453,55.185,70.453,58.604z"/>
		<path fill="#FFFFFF" d="M70.453,83.592c0,3.419-2.784,6.19-6.205,6.19c-3.403,0-6.19-2.771-6.19-6.19
			c0-3.418,2.787-6.199,6.19-6.199C67.669,77.393,70.453,80.174,70.453,83.592z"/>
		<path fill="#FFFFFF" d="M70.453,111.711c0,3.416-2.784,6.196-6.205,6.196c-3.403,0-6.19-2.781-6.19-6.196
			c0-3.421,2.787-6.193,6.19-6.193C67.669,105.519,70.453,108.29,70.453,111.711z"/>
		<path fill="#FFFFFF" d="M98.376,64.791c0,3.43-2.787,6.199-6.213,6.199c-3.407,0-6.191-2.769-6.191-6.199
			c0-3.418,2.784-6.189,6.191-6.189C95.589,58.601,98.376,61.373,98.376,64.791z"/>
		<path fill="#FFFFFF" d="M93.965,92.88c0,2.052-1.67,3.709-3.718,3.709c-2.027,0-3.696-1.657-3.696-3.709
			c0-2.039,1.669-3.699,3.696-3.699C92.295,89.181,93.965,90.841,93.965,92.88z"/>
		<path fill="#FFFFFF" d="M93.965,110.624c0,2.043-1.67,3.702-3.718,3.702c-2.027,0-3.696-1.659-3.696-3.702
			c0-2.048,1.669-3.704,3.696-3.704C92.295,106.92,93.965,108.576,93.965,110.624z"/>
		<path fill="#FFFFFF" d="M39.412,92.88c0,2.052-1.649,3.709-3.697,3.709c-2.05,0-3.719-1.657-3.719-3.709
			c0-2.039,1.669-3.699,3.719-3.699C37.763,89.181,39.412,90.841,39.412,92.88z"/>
		<path fill="#FFFFFF" d="M39.412,110.624c0,2.043-1.649,3.702-3.697,3.702c-2.05,0-3.719-1.659-3.719-3.702
			c0-2.048,1.669-3.704,3.719-3.704C37.763,106.92,39.412,108.576,39.412,110.624z"/>
		<path opacity="0.2" fill="#FFFFFF" d="M141.802,149.958c-1.394-1.393-8.318-5.183-8.318-5.183S122.553,43.1,120.555,39.809
			c-1.998-3.291-23.586-24.369-55.174-24.369l-1.125,113.808c0,0-32.261,1.267-64.527,15.518c0,0-6.935,3.45-8.008,5.193
			c-1.073,1.743-2.893,9.703-1.767,14.168c1.127,4.464,40.715,19.355,76.759,19.355c35.676,0,75.718-15.852,76.819-19.355
			C144.635,160.621,143.192,151.352,141.802,149.958z"/>
		<path fill="#647882" d="M125.408,159.554c0,0-24.238,12.828-58.693,12.828c-32.414,0-58.621-12.828-58.621-12.828
			s25.779-14.784,58.621-14.784C100.923,144.77,125.408,159.554,125.408,159.554z"/>
	</g>
</g>
</svg>
