<?xml version="1.0" encoding="utf-8"?>
<!-- Generator: Adobe Illustrator 16.0.3, SVG Export Plug-In . SVG Version: 6.00 Build 0)  -->
<!DOCTYPE svg PUBLIC "-//W3C//DTD SVG 1.1//EN" "http://www.w3.org/Graphics/SVG/1.1/DTD/svg11.dtd">
<svg version="1.1" id="Layer_1" xmlns="http://www.w3.org/2000/svg" xmlns:xlink="http://www.w3.org/1999/xlink" x="0px" y="0px"
	 width="220px" height="62px" viewBox="345.167 73 220 62" enable-background="new 345.167 73 220 62" xml:space="preserve">
<g id="GUIDES" display="none">
	
		<circle display="inline" fill="none" stroke="#00FFFF" stroke-width="0.75" stroke-miterlimit="10" cx="179.828" cy="171.673" r="7.006"/>
	
		<circle display="inline" fill="none" stroke="#00FFFF" stroke-width="0.75" stroke-miterlimit="10" cx="179.828" cy="70.504" r="7.006"/>
	
		<circle display="inline" fill="none" stroke="#00FFFF" stroke-width="0.75" stroke-miterlimit="10" cx="165.46" cy="171.673" r="7.006"/>
	
		<circle display="inline" fill="none" stroke="#00FFFF" stroke-width="0.75" stroke-miterlimit="10" cx="151.092" cy="171.673" r="7.006"/>
</g>
<g id="Popcorn">
	<g>
		<path fill="#333333" d="M395.561,93.939v-5.328c0-0.961-0.11-1.151-0.662-1.151c-0.394,0-0.946,0.268-1.403,0.677v5.802h-2.002
			v-5.25c0-1.009-0.142-1.246-0.726-1.246c-0.394,0-0.929,0.206-1.387,0.615v5.88h-2.065v-5.628c0-1.167-0.079-1.67-0.299-2.065
			l1.908-0.521c0.142,0.221,0.205,0.41,0.283,0.82c0.552-0.536,1.23-0.82,1.971-0.82c0.662,0,1.213,0.221,1.64,0.663
			c0.11,0.11,0.22,0.252,0.315,0.394c0.741-0.757,1.403-1.057,2.285-1.057c0.63,0,1.23,0.19,1.592,0.504
			c0.458,0.395,0.6,0.868,0.6,1.971v5.738H395.561z"/>
		<path fill="#333333" d="M404.769,92.993c-0.615,0.694-1.419,1.12-2.665,1.12c-2.191,0-3.626-1.64-3.626-4.178
			c0-2.538,1.45-4.224,3.626-4.224c1.151,0,2.049,0.393,2.743,1.213c0.647,0.757,0.93,1.64,0.93,2.948
			C405.777,91.259,405.462,92.205,404.769,92.993z M403.05,87.696c-0.205-0.268-0.536-0.426-0.914-0.426
			c-0.504,0-0.915,0.315-1.087,0.82c-0.143,0.426-0.221,0.993-0.221,1.797c0,0.93,0.095,1.624,0.268,2.034
			c0.189,0.441,0.663,0.663,1.072,0.663c0.915,0,1.309-0.82,1.309-2.728C403.476,88.769,403.333,88.059,403.05,87.696z"/>
		<polygon fill="#333333" points="411.879,93.939 405.936,93.939 405.936,92.631 409.734,87.35 406.25,87.35 406.25,85.868 
			412.242,85.868 412.242,87.318 408.678,92.474 412.383,92.474 		"/>
		<path fill="#333333" d="M414.07,84.953c-0.709,0-1.292-0.583-1.292-1.308s0.599-1.309,1.324-1.309
			c0.709,0,1.277,0.583,1.277,1.309C415.378,84.371,414.796,84.953,414.07,84.953z M413.014,93.939V86.01l2.112-0.331v8.26H413.014z
			"/>
		<path fill="#333333" d="M418.532,94.129c-0.899,0-1.624-0.426-1.876-1.104c-0.158-0.41-0.189-0.663-0.189-1.813V85.19
			c0-1.056-0.031-1.703-0.11-2.428l2.16-0.488c0.079,0.441,0.11,0.961,0.11,2.097v6.29c0,1.387,0.016,1.576,0.142,1.797
			c0.079,0.143,0.252,0.221,0.425,0.221c0.079,0,0.126,0,0.236-0.031l0.363,1.26C419.43,94.05,418.988,94.129,418.532,94.129z"/>
		<path fill="#333333" d="M422.016,94.129c-0.898,0-1.624-0.426-1.875-1.104c-0.158-0.41-0.189-0.663-0.189-1.813V85.19
			c0-1.056-0.031-1.703-0.11-2.428L422,82.274c0.079,0.441,0.111,0.961,0.111,2.097v6.29c0,1.387,0.016,1.576,0.142,1.797
			c0.079,0.143,0.252,0.221,0.426,0.221c0.079,0,0.126,0,0.237-0.031l0.362,1.26C422.915,94.05,422.473,94.129,422.016,94.129z"/>
		<path fill="#333333" d="M429.614,94.35c-0.489-0.206-0.93-0.568-1.136-0.978c-0.158,0.157-0.331,0.315-0.488,0.425
			c-0.394,0.284-0.962,0.441-1.624,0.441c-1.797,0-2.774-0.914-2.774-2.522c0-1.892,1.308-2.775,3.877-2.775
			c0.158,0,0.3,0,0.474,0.016v-0.332c0-0.897-0.174-1.197-0.946-1.197c-0.678,0-1.466,0.331-2.333,0.915l-0.898-1.514
			c0.425-0.268,0.74-0.425,1.308-0.662c0.789-0.331,1.466-0.473,2.208-0.473c1.355,0,2.286,0.504,2.601,1.403
			c0.111,0.331,0.158,0.583,0.142,1.45l-0.047,2.711c-0.016,0.883,0.047,1.262,0.756,1.798L429.614,94.35z M427.817,90.408
			c-1.466,0-1.971,0.269-1.971,1.23c0,0.63,0.394,1.057,0.93,1.057c0.394,0,0.789-0.206,1.104-0.552l0.032-1.734L427.817,90.408
			L427.817,90.408z"/>
		<path fill="#FBFAF1" d="M350.001,102.037l2.041,15.994l3.033,2.084l-1.391-15.953L350.001,102.037z M358.231,122.285l2.978,2.048
			v-15.825l-3.876-2.236L358.231,122.285z"/>
		<polyline fill="#676867" points="363.578,92.515 363.578,107.179 376.278,99.847 363.578,92.515 		"/>
		<polyline fill="#C0C1BC" points="350.879,99.847 363.578,107.179 363.578,92.515 350.879,99.847 		"/>
		<path fill="#A42B1D" d="M379.782,99.847c0-0.417-0.223-0.803-0.584-1.011l-15.035-8.68c-0.181-0.104-0.382-0.156-0.583-0.156
			v2.517l12.699,7.331l-12.699,7.332v21.367c0.231,0,0.461-0.068,0.661-0.206l12.629-8.681c0.274-0.188,0.455-0.484,0.498-0.813
			l2.407-18.851h-0.001C379.778,99.945,379.782,99.896,379.782,99.847 M368.926,122.285l-2.936,2.018v-15.819l3.833-2.214
			L368.926,122.285 M375.116,118.031l-3.032,2.084l1.391-15.953l3.683-2.126L375.116,118.031"/>
		<path fill="#D83920" d="M363.579,107.179L363.579,107.179l-12.7-7.332l12.699-7.331l0.001,0v-2.517
			c0.201,0,0.403,0.052,0.583,0.156c-0.361-0.209-0.807-0.209-1.168,0l-15.035,8.68c-0.361,0.209-0.583,0.595-0.583,1.012
			c0,0.05,0.004,0.098,0.009,0.148l0,0l2.406,18.851c0.042,0.329,0.223,0.625,0.497,0.813l12.629,8.681
			c0.199,0.138,0.429,0.206,0.661,0.206h0L363.579,107.179 M352.042,118.031l-2.041-15.995l3.682,2.126l1.391,15.953
			L352.042,118.031 M361.209,124.332l-2.978-2.047l-0.899-16.016l3.876,2.238V124.332"/>
		<path fill="#F4D256" d="M371.635,85.458c-0.579-0.578-1.285-1.011-2.054-1.277c0.001-0.035,0.004-0.069,0.004-0.104
			c0-2.624-2.135-4.758-4.758-4.758c-1.895,0-3.567,1.107-4.327,2.782c-3.688,0.498-6.563,3.696-6.563,7.495
			c0,4.172,3.394,7.568,7.568,7.568c2.14,0,4.185-0.924,5.612-2.505c0.229,0.029,0.459,0.046,0.689,0.046
			c1.417,0,2.802-0.556,3.831-1.585c1.022-1.023,1.586-2.384,1.586-3.83C373.222,87.841,372.658,86.481,371.635,85.458
			 M369.934,91.417c-0.772,0.772-1.906,1.065-2.96,0.764l-0.33,1.152v0.004l0,0l0,0l-1.05-0.607
			c-0.988,1.289-2.47,2.026-4.089,2.026c-2.847,0-5.163-2.315-5.163-5.162c0-2.786,2.269-5.099,5.058-5.154l0.927-0.019l0.218-0.9
			c0.257-1.058,1.197-1.797,2.284-1.797c1.297,0,2.353,1.055,2.353,2.353c0,0.221-0.035,0.449-0.104,0.677l1.152,0.347l-0.23,1.195
			c0.018,0.001,0.035,0.001,0.051,0c0.02,0,0.039,0,0.059,0.001c0.702,0.07,1.334,0.368,1.827,0.86
			c0.568,0.569,0.882,1.325,0.882,2.129C370.817,90.092,370.502,90.85,369.934,91.417"/>
		<path fill="#FCF9E2" d="M366.974,92.182c1.054,0.302,2.188,0.008,2.96-0.764c0.568-0.568,0.883-1.325,0.883-2.129
			s-0.314-1.56-0.882-2.129c-0.493-0.493-1.125-0.791-1.827-0.86c-0.037-0.004-0.072,0-0.11-0.002l0.23-1.195l-1.152-0.348
			c0.069-0.228,0.104-0.457,0.104-0.677c0-1.298-1.056-2.352-2.353-2.352c-1.087,0-2.026,0.738-2.284,1.796l-0.218,0.901
			l-0.927,0.019c-2.789,0.055-5.058,2.369-5.058,5.155c0,2.847,2.316,5.162,5.163,5.162c1.62,0,3.101-0.737,4.089-2.026l1.05,0.606
			l0,0l0,0v-0.003L366.974,92.182z"/>
		<path fill="#C3C5C7" d="M355.633,94.365l-2.103,1.213c0.007,0.01,0.015,0.019,0.021,0.029l2.104-1.215
			C355.648,94.383,355.64,94.375,355.633,94.365 M370.682,93.878c-0.011,0.007-0.023,0.014-0.034,0.021l2.267,1.309
			c0.01-0.007,0.019-0.016,0.028-0.023L370.682,93.878"/>
		<path fill="#4F5050" d="M367.116,94.658c-0.955,1.057-2.186,1.821-3.538,2.211v2.479c1.653-0.357,3.196-1.132,4.474-2.244
			c0.882-0.029,1.751-0.206,2.571-0.521l-3.292-1.901C367.259,94.675,367.187,94.667,367.116,94.658"/>
		<path fill="#939593" d="M357.508,96.02l-2.283,1.318c1.715,1.394,3.901,2.229,6.278,2.229c0.703,0,1.398-0.075,2.074-0.221v-2.479
			c-0.668,0.193-1.366,0.294-2.074,0.294c-0.004,0-0.009,0-0.013,0c-0.001,0-0.002,0-0.004,0c-0.002,0-0.006,0-0.009,0
			c-0.002,0-0.003,0-0.005,0c-0.003,0-0.006,0-0.008,0c-0.002,0-0.004,0-0.006,0c-0.002,0-0.005,0-0.008,0c-0.001,0-0.004,0-0.005,0
			c-0.003,0-0.005,0-0.008,0c-0.002,0-0.003,0-0.005,0c-0.002,0-0.006,0-0.009,0c-0.001,0-0.002,0-0.003,0c-0.013,0-0.027,0-0.041,0
			h0c-0.004,0-0.009,0-0.013,0c0,0-0.001,0-0.001,0c-0.004,0-0.009,0-0.014,0l0,0C359.943,97.133,358.627,96.719,357.508,96.02"/>
		<path fill="#7D2117" d="M370.647,93.899c-0.849,0.522-1.825,0.8-2.819,0.805l0,0c-0.002,0-0.006,0-0.01,0
			c-0.001,0-0.002,0-0.003,0c-0.003,0-0.007,0-0.011,0c-0.158,0-0.317-0.009-0.475-0.022l3.292,1.901
			c0.828-0.319,1.605-0.781,2.292-1.375L370.647,93.899"/>
		<path fill="#A52C19" d="M355.655,94.393l-2.104,1.215c0.486,0.642,1.049,1.224,1.674,1.731l2.283-1.318
			C356.806,95.581,356.179,95.03,355.655,94.393"/>
		<path fill="#BBA243" d="M361.478,97.163c0.002,0,0.006,0,0.008,0C361.482,97.163,361.48,97.163,361.478,97.163 M361.464,97.163
			c0.002,0,0.005,0,0.008,0C361.469,97.163,361.466,97.163,361.464,97.163 M361.451,97.163c0.002,0,0.005,0,0.008,0
			C361.457,97.163,361.454,97.163,361.451,97.163 M361.438,97.163c0.002,0,0.005,0,0.008,0
			C361.442,97.163,361.44,97.163,361.438,97.163 M361.423,97.162c0.003,0,0.007,0,0.01,0
			C361.43,97.162,361.427,97.162,361.423,97.162 M361.379,97.162c0.013,0,0.027,0,0.041,0
			C361.406,97.162,361.393,97.162,361.379,97.162 M361.365,97.162c0.004,0,0.009,0,0.013,0
			C361.375,97.162,361.37,97.162,361.365,97.162 M361.352,97.161c0.004,0,0.009,0.001,0.013,0.001
			C361.36,97.162,361.356,97.162,361.352,97.161 M367.828,94.704c-0.002,0-0.006,0-0.01,0
			C367.822,94.704,367.826,94.704,367.828,94.704 M367.116,94.658c-1.427,1.581-3.472,2.505-5.612,2.505c-0.005,0-0.01,0-0.013,0
			c0.004,0,0.008,0,0.013,0c0.708,0,1.406-0.101,2.074-0.294C364.93,96.479,366.161,95.715,367.116,94.658
			c0.071,0.009,0.143,0.017,0.214,0.023c0.158,0.015,0.317,0.022,0.475,0.022c0.004,0,0.008,0,0.011,0c-0.003,0-0.007,0-0.011,0
			C367.575,94.704,367.345,94.687,367.116,94.658 M355.635,94.364l-0.002,0.001c0.007,0.009,0.015,0.018,0.022,0.027
			c0.524,0.638,1.151,1.189,1.853,1.627l0,0c1.121,0.7,2.436,1.114,3.843,1.142C359.046,97.116,356.994,96.033,355.635,94.364
			 M370.676,93.875c-0.856,0.534-1.842,0.823-2.848,0.828c0.995-0.005,1.971-0.283,2.819-0.805c0.011-0.007,0.022-0.014,0.034-0.021
			L370.676,93.875"/>
		<path fill="#C0C1BC" d="M373.475,104.163l-1.391,15.953l3.032-2.084l2.041-15.995L373.475,104.163z M365.991,124.303l2.936-2.018
			l0.898-16.014l-3.833,2.212V124.303z"/>
		<path fill="#333333" d="M393.999,110.686h-3.617v8.16h-3.523V97.459h5.687c3.122,0,4.265,0.308,5.44,1.02
			c1.885,1.112,2.936,3.028,2.936,5.377C400.921,108.059,397.861,110.686,393.999,110.686z M396.13,101.383
			c-0.649-0.679-1.576-1.05-2.967-1.05h-2.781v7.509h2.781c2.627,0,3.833-1.234,3.833-3.77
			C396.996,102.898,396.718,102.002,396.13,101.383z"/>
		<path fill="#333333" d="M408.586,119.247c-4.234,0-6.892-3.185-6.892-8.189c0-5.008,2.689-8.221,6.831-8.221
			c4.45,0,6.984,3.306,6.984,8.251C415.509,116.127,412.82,119.247,408.586,119.247z M408.556,105.4
			c-2.164,0-3.091,1.639-3.091,5.44c0,4.543,1.144,5.872,3.184,5.872c2.008,0,3.121-1.638,3.121-5.563
			C411.77,106.731,410.534,105.4,408.556,105.4z"/>
		<path fill="#333333" d="M425.003,119.153c-1.328,0-2.626-0.432-3.708-1.266c0,0.122,0.062,0.772,0.062,1.544v5.224l-3.276,0.834
			v-18.233c0-1.947-0.093-2.75-0.309-3.895l3.121-0.556c0.154,0.525,0.216,0.958,0.247,1.916c0.989-1.206,2.535-1.854,4.173-1.854
			c3.152,0,5.903,2.38,5.903,7.819C431.216,115.879,428.99,119.153,425.003,119.153z M424.664,105.68
			c-1.236,0-2.379,0.557-3.307,1.607v7.788c0.804,0.804,1.886,1.391,2.906,1.391c2.287,0,3.307-1.701,3.307-5.408
			C427.569,107.564,426.889,105.68,424.664,105.68z"/>
		<path fill="#333333" d="M439.902,119.247c-4.266,0-6.645-2.998-6.645-8.035c0-5.687,3.4-8.407,6.892-8.407
			c1.701,0,2.937,0.402,4.327,1.699l-1.7,2.257c-0.926-0.835-1.73-1.206-2.627-1.206c-1.081,0-1.978,0.557-2.472,1.576
			c-0.464,0.959-0.649,2.411-0.649,4.359c0,2.131,0.34,3.491,1.051,4.265c0.495,0.556,1.236,0.896,2.07,0.896
			c1.082,0,2.133-0.526,3.152-1.546l1.607,2.07C443.488,118.598,442.003,119.247,439.902,119.247z"/>
		<path fill="#333333" d="M452.728,119.247c-4.233,0-6.891-3.185-6.891-8.189c0-5.008,2.689-8.221,6.831-8.221
			c4.45,0,6.984,3.306,6.984,8.251C459.652,116.127,456.963,119.247,452.728,119.247z M452.698,105.4c-2.163,0-3.09,1.639-3.09,5.44
			c0,4.543,1.144,5.872,3.183,5.872c2.009,0,3.123-1.638,3.123-5.563C455.913,106.731,454.675,105.4,452.698,105.4z"/>
		<path fill="#333333" d="M469.637,106.174c-0.339-0.124-0.585-0.217-0.958-0.217c-1.42,0-2.625,1.051-2.936,2.318v10.57h-3.399
			v-11.034c0-1.979-0.216-3.245-0.555-4.203l3.12-0.803c0.37,0.711,0.587,1.607,0.587,2.472c1.235-1.699,2.473-2.503,3.988-2.503
			c0.493,0,0.803,0.062,1.203,0.247L469.637,106.174z"/>
		<path fill="#333333" d="M480.488,118.846v-10.385c0-2.133-0.495-2.719-1.793-2.719c-0.988,0-2.412,0.74-3.431,1.761v11.343h-3.339
			v-11.498c0-1.637-0.154-2.596-0.586-3.708l3.089-0.865c0.372,0.711,0.557,1.391,0.557,2.225c1.671-1.422,3.122-2.163,4.791-2.163
			c2.41,0,4.078,1.453,4.078,4.326v11.684H480.488z"/>
		<circle fill="#333333" cx="388.621" cy="114.931" r="1.762"/>
	</g>
</g>
<g id="Layer_5">
	<g>
		<path fill="#3A3A3C" d="M489.381,96.897h3.883l4.042,14.492c0.614,2.167,0.872,3.882,0.872,3.882s0.292-1.78,0.808-3.623
			l4.175-14.75h3.915l1.907,22.19h-2.653l-1.292-16.271c-0.1-1.423-0.163-3.784-0.163-3.784s-0.454,2.038-0.872,3.494l-4.755,16.561
			h-2.265l-4.4-15.753c-0.711-2.489-1.101-4.334-1.101-4.334s-0.159,2.943-0.258,4.303l-1.229,15.785h-2.555L489.381,96.897z"/>
		<path fill="#3A3A3C" d="M511.668,104.726c2.133-1.422,4.431-2.167,6.76-2.167c2.231,0,3.785,0.873,4.465,2.523
			c0.355,0.873,0.388,2.102,0.355,3.558l-0.13,5.306c-0.063,2.619,0.098,3.298,1.294,3.946l-1.294,1.811
			c-1.1-0.355-1.907-1.229-2.199-2.36c-1.554,1.553-2.813,2.168-4.658,2.168c-3.979,0-5.177-2.429-5.177-4.596
			c0-3.654,3.139-5.789,8.541-5.789c0.68,0,1.132,0.032,1.132,0.032v-1.133c0-1.423-0.063-2.005-0.518-2.522
			c-0.518-0.582-1.164-0.872-2.167-0.872c-1.812,0-4.107,0.97-5.143,1.907L511.668,104.726z M520.694,110.905
			c-0.42-0.034-0.811-0.065-1.262-0.065c-4.077,0-5.532,1.391-5.532,3.848c0,1.909,0.939,2.944,2.782,2.944
			c1.65,0,3.168-1.004,3.913-2.522L520.694,110.905z"/>
		<path fill="#3A3A3C" d="M526.137,95.928l2.523-0.486c0,0,0.42,1.359,0.42,3.817v19.83h-2.523V99.226
			C526.557,97.124,526.137,95.928,526.137,95.928z M535.325,102.979h3.169l-6.34,6.986l7.795,9.122h-3.364l-7.406-9.122
			L535.325,102.979z"/>
		<path fill="#3A3A3C" d="M551.023,115.82l0.97,1.618c-1.424,1.293-3.365,2.005-5.435,2.005c-4.464,0-7.149-3.235-7.149-8.572
			c0-2.717,0.582-4.462,1.941-6.08c1.294-1.521,2.877-2.232,4.82-2.232c1.746,0,3.268,0.614,4.367,1.747
			c1.39,1.423,1.777,2.944,1.845,6.792v0.356h-10.061v0.388c0,1.521,0.194,2.686,0.742,3.525c0.907,1.392,2.393,1.975,4.013,1.975
			C548.627,117.342,549.889,116.855,551.023,115.82z M542.322,109.545h7.374c-0.032-1.746-0.258-2.813-0.746-3.59
			c-0.548-0.873-1.68-1.424-2.911-1.424C543.746,104.529,542.45,106.215,542.322,109.545z"/>
		<path fill="#3A3A3C" d="M554.332,103.238l2.523-0.68c0,0,0.613,1.262,0.52,2.619c1.162-1.65,2.877-2.685,4.526-2.685
			c0.418,0,0.872,0.163,0.872,0.163l-1.034,2.749c-0.163-0.063-0.453-0.129-0.713-0.129c-0.968,0-1.938,0.421-2.684,1.165
			c-0.744,0.743-0.938,1.229-0.938,2.557v10.091h-2.523v-12.422C554.881,104.305,554.332,103.238,554.332,103.238z"/>
	</g>
</g>
<g id="Goggles" display="none">
	<g display="inline">
		<g>
			<path fill="#333333" d="M208.31,61.014V39.285c0-3.921-0.45-4.693-2.699-4.693c-1.607,0-3.858,1.092-5.722,2.764v23.659h-8.166
				V39.606c0-4.115-0.578-5.08-2.958-5.08c-1.607,0-3.792,0.837-5.656,2.507v23.98h-8.423V38.062c0-4.756-0.322-6.813-1.22-8.421
				l7.779-2.122c0.579,0.9,0.835,1.672,1.157,3.342c2.249-2.186,5.015-3.342,8.036-3.342c2.701,0,4.95,0.9,6.685,2.701
				c0.45,0.448,0.9,1.029,1.287,1.607c3.021-3.086,5.722-4.308,9.321-4.308c2.572,0,5.015,0.772,6.494,2.057
				c1.864,1.607,2.444,3.536,2.444,8.036v23.402H208.31z"/>
			<path fill="#333333" d="M245.859,57.156c-2.508,2.829-5.787,4.565-10.865,4.565c-8.936,0-14.788-6.686-14.788-17.037
				c0-10.35,5.915-17.23,14.788-17.23c4.693,0,8.357,1.607,11.187,4.952c2.636,3.086,3.793,6.685,3.793,12.021
				C249.973,50.084,248.688,53.942,245.859,57.156z M238.851,35.555c-0.837-1.092-2.188-1.736-3.729-1.736
				c-2.057,0-3.729,1.286-4.436,3.343c-0.579,1.735-0.9,4.051-0.9,7.329c0,3.795,0.387,6.622,1.094,8.294
				c0.771,1.8,2.7,2.701,4.371,2.701c3.729,0,5.337-3.344,5.337-11.123C240.587,39.928,240.008,37.034,238.851,35.555z"/>
			<path fill="#333333" d="M274.856,61.014h-24.237v-5.336l15.492-21.537h-14.207v-6.043h24.431v5.916l-14.529,21.022h15.107
				L274.856,61.014z"/>
			<path fill="#333333" d="M283.792,24.368c-2.893,0-5.271-2.377-5.271-5.334s2.443-5.337,5.4-5.337
				c2.893,0,5.208,2.379,5.208,5.337S286.75,24.368,283.792,24.368z M279.485,61.014V28.676l8.616-1.35v33.688H279.485z"/>
			<path fill="#333333" d="M301.987,61.786c-3.665,0-6.622-1.735-7.651-4.501c-0.643-1.67-0.771-2.699-0.771-7.392V25.334
				c0-4.308-0.128-6.944-0.45-9.901l8.808-1.992c0.322,1.8,0.45,3.921,0.45,8.551v25.651c0,5.656,0.065,6.428,0.579,7.329
				c0.321,0.579,1.028,0.9,1.736,0.9c0.32,0,0.514,0,0.964-0.128l1.479,5.143C305.651,61.464,303.85,61.786,301.987,61.786z"/>
			<path fill="#333333" d="M316.196,61.786c-3.664,0-6.622-1.735-7.65-4.501c-0.644-1.67-0.772-2.699-0.772-7.392V25.334
				c0-4.308-0.128-6.944-0.449-9.901l8.807-1.992c0.322,1.8,0.45,3.921,0.45,8.551v25.651c0,5.656,0.065,6.428,0.579,7.329
				c0.321,0.579,1.028,0.9,1.737,0.9c0.319,0,0.514,0,0.964-0.128l1.479,5.143C319.861,61.464,318.06,61.786,316.196,61.786z"/>
			<path fill="#333333" d="M347.181,62.687c-1.992-0.837-3.792-2.316-4.628-3.986c-0.644,0.642-1.35,1.285-1.993,1.735
				c-1.607,1.157-3.922,1.801-6.622,1.801c-7.329,0-11.313-3.729-11.313-10.287c0-7.715,5.335-11.315,15.814-11.315
				c0.644,0,1.223,0,1.929,0.063v-1.351c0-3.664-0.706-4.885-3.857-4.885c-2.765,0-5.979,1.351-9.515,3.728l-3.664-6.172
				c1.735-1.092,3.021-1.735,5.335-2.699c3.214-1.35,5.979-1.929,9.001-1.929c5.529,0,9.322,2.057,10.607,5.722
				c0.45,1.35,0.644,2.379,0.579,5.915l-0.193,11.057c-0.063,3.601,0.193,5.143,3.086,7.329L347.181,62.687z M339.853,46.613
				c-5.979,0-8.036,1.094-8.036,5.015c0,2.571,1.607,4.308,3.793,4.308c1.607,0,3.214-0.837,4.5-2.25l0.13-7.072h-0.387V46.613z"/>
		</g>
	</g>
	<g display="inline">
		<path fill="#333333" d="M223.112,165.066l-18.023-34.534l-17.393,34.534h-17.771l26.72-46.76l-23.443-40.458h17.645l13.99,26.972
			l13.738-26.972h17.14l-22.182,39.45l26.97,47.769H223.112L223.112,165.066z"/>
		<path fill="#333333" d="M239.247,137.212v-12.854h27.603v12.854H239.247z"/>
		<path fill="#333333" d="M321.802,165.066l-7.562-13.486c-6.05-10.713-10.083-16.764-14.873-21.553
			c-1.639-1.639-2.898-2.521-5.672-2.646v37.686h-14.241V77.849h26.593c19.536,0,28.359,11.343,28.359,24.955
			c0,12.478-8.066,23.947-21.679,23.947c3.15,1.64,8.948,10.083,13.485,17.394l12.856,20.922H321.802L321.802,165.066z
			 M301.636,89.57h-7.94v27.602h7.437c7.562,0,11.596-1.008,14.242-3.654c2.395-2.396,3.907-6.051,3.907-10.587
			C319.282,94.107,314.493,89.57,301.636,89.57z"/>
		<path fill="#333333" d="M390.246,167.713c-3.907-1.512-7.185-4.537-8.697-8.57c-5.167,5.799-10.713,7.814-17.519,7.814
			c-14.621,0-21.175-8.066-21.175-19.158c0-14.746,11.092-22.183,31.51-22.183h4.285v-3.402c0-7.312-1.261-11.218-8.823-11.218
			c-8.192,0-17.015,5.798-19.031,7.311l-6.176-9.957c9.579-6.05,17.52-8.697,27.098-8.697c9.957,0,16.638,3.655,19.41,10.587
			c1.135,2.771,1.135,6.176,1.009,15.628l-0.253,18.276c-0.126,8.569,0.631,11.342,5.546,14.746L390.246,167.713z M375.877,134.943
			c-13.864,0-18.023,4.033-18.023,12.1c0,6.05,3.276,9.831,8.822,9.831c4.411,0,8.696-2.646,11.47-6.681l0.252-15.125
			C378.146,135.068,376.759,134.943,375.877,134.943z"/>
		<path fill="#333333" d="M435.371,166.453c-5.294,15.376-9.831,23.064-24.829,25.837l-4.538-8.948
			c8.697-2.395,13.612-6.05,17.268-18.275h-4.41c-1.766-7.185-4.159-14.115-6.051-19.787L398.316,102.3l14.115-2.395l11.722,38.819
			c1.135,3.781,3.276,13.36,3.528,14.368c0.126-0.504,2.396-9.579,4.79-17.268l10.587-34.534h14.872L435.371,166.453z"/>
		<path fill="#333333" d="M521.333,166.201c-12.227,0-21.678-3.907-28.484-12.354c-6.68-8.191-9.705-18.022-9.705-31.762
			c0-17.896,5.42-30.375,16.387-38.567c6.301-4.79,13.105-6.806,21.551-6.806c9.957,0,18.781,3.025,25.965,9.201l-7.311,9.074
			c-6.051-4.663-11.723-6.68-18.402-6.68c-16.133,0-22.057,14.116-22.057,34.534c0,12.227,2.27,20.797,6.43,25.713
			c3.527,4.158,9.83,6.553,16.51,6.553c4.537,0,8.318-1.008,11.596-2.771v-22.688H518.94l-2.018-11.848h31.635v41.088
			C540.616,163.68,531.038,166.201,521.333,166.201z"/>
		<path fill="#333333" d="M587.377,166.705c-17.266,0-28.105-12.982-28.105-33.4s10.967-33.526,27.854-33.526
			c18.15,0,28.484,13.487,28.484,33.653C615.612,153.977,604.647,166.705,587.377,166.705z M587.252,110.24
			c-8.822,0-12.604,6.68-12.604,22.183c0,18.527,4.662,23.947,12.98,23.947c8.191,0,12.729-6.681,12.729-22.688
			C600.36,115.66,595.319,110.24,587.252,110.24z"/>
		<path fill="#333333" d="M675.86,111.5c-2.646,0-4.537-0.504-4.914-0.63c0.377,0.378,4.158,4.538,4.158,11.091
			c0,11.091-9.201,19.536-24.199,19.536c-4.537,1.639-8.57,4.033-8.57,6.05c0,2.396,0.883,2.646,15.881,2.646
			c10.209,0,21.174,5.168,21.174,18.149c0,13.611-11.344,20.923-28.357,20.923c-16.51,0-28.484-5.42-28.484-17.395
			c0-2.646,1.008-6.051,1.26-6.807h13.109c-0.252,0.504-1.01,2.772-1.01,4.537c0,5.924,5.043,9.201,13.99,9.201
			c9.832,0,15.125-4.033,15.125-9.957c0-6.933-5.799-8.822-17.646-8.822c-17.141,0-20.922-3.402-20.922-9.705
			c0-6.301,5.293-8.822,12.1-10.965c-9.578-2.772-14.494-8.948-14.494-18.023c0-12.982,10.209-21.553,25.459-21.553
			c9.076,0,14.242,3.277,19.41,3.277c4.16,0,8.066-1.512,11.598-4.411l6.428,8.697C683.422,110.366,680.145,111.5,675.86,111.5z
			 M649.391,110.24c-7.057,0-10.965,3.906-10.965,11.091c0,7.31,4.16,10.712,10.965,10.712c7.186,0,10.967-3.779,10.967-10.839
			C660.358,114.021,656.704,110.24,649.391,110.24z"/>
		<path fill="#333333" d="M738.377,111.5c-2.646,0-4.537-0.504-4.916-0.63c0.379,0.378,4.16,4.538,4.16,11.091
			c0,11.091-9.201,19.536-24.199,19.536c-4.537,1.639-8.57,4.033-8.57,6.05c0,2.396,0.883,2.646,15.881,2.646
			c10.209,0,21.174,5.168,21.174,18.149c0,13.611-11.344,20.923-28.357,20.923c-16.512,0-28.484-5.42-28.484-17.395
			c0-2.646,1.008-6.051,1.26-6.807h13.107c-0.252,0.504-1.008,2.772-1.008,4.537c0,5.924,5.041,9.201,13.99,9.201
			c9.83,0,15.125-4.033,15.125-9.957c0-6.933-5.799-8.822-17.646-8.822c-17.141,0-20.922-3.402-20.922-9.705
			c0-6.301,5.293-8.822,12.1-10.965c-9.578-2.772-14.494-8.948-14.494-18.023c0-12.982,10.209-21.553,25.459-21.553
			c9.076,0,14.242,3.277,19.41,3.277c4.16,0,8.066-1.512,11.596-4.411l6.428,8.697C745.94,110.366,742.663,111.5,738.377,111.5z
			 M711.911,110.24c-7.059,0-10.965,3.906-10.965,11.091c0,7.31,4.158,10.712,10.965,10.712c7.184,0,10.965-3.779,10.965-10.839
			C722.875,114.021,719.219,110.24,711.911,110.24z"/>
		<path fill="#333333" d="M767.874,166.453c-13.99,0-13.99-12.604-13.99-18.023V94.107c0-8.697-0.379-13.36-1.26-18.654
			l14.242-3.151c1.008,3.907,1.133,9.201,1.133,17.519v54.07c0,8.571,0.379,9.957,1.387,11.471c0.756,1.135,2.898,1.765,4.537,1.009
			l2.27,8.569C773.67,165.948,771.024,166.453,767.874,166.453z"/>
		<path fill="#333333" d="M795.856,136.96v1.008c0,8.823,3.275,18.15,15.754,18.15c5.924,0,11.092-2.144,15.881-6.304l5.42,8.445
			c-6.68,5.672-14.369,8.444-22.939,8.444c-18.021,0-29.365-12.981-29.365-33.399c0-11.219,2.395-18.654,7.939-24.955
			c5.168-5.925,11.469-8.572,19.535-8.572c6.303,0,12.1,1.639,17.52,6.554c5.547,5.042,8.318,12.855,8.318,27.729v2.898
			L795.856,136.96L795.856,136.96z M808.081,110.24c-7.814,0-12.1,6.176-12.1,16.511h23.568
			C819.549,116.416,815.012,110.24,808.081,110.24z"/>
		<path fill="#333333" d="M863.417,166.831c-7.814,0-16.26-2.521-24.453-7.06l4.916-9.957c5.672,3.277,13.486,6.682,20.67,6.682
			c6.051,0,10.336-3.655,10.336-8.949c0-4.915-3.15-7.438-10.336-8.947l-7.688-1.64c-9.578-2.017-15.25-8.569-15.25-17.519
			c0-11.975,9.58-20.292,23.695-20.292c8.695,0,15.627,2.646,21.049,5.544l-4.537,9.58c-5.926-3.151-10.588-4.664-15.629-4.664
			c-5.926,0-9.705,3.276-9.705,8.191c0,3.907,2.143,5.924,8.568,7.562l7.941,2.017c12.855,3.277,16.258,10.335,16.258,17.771
			C889.252,158.009,878.792,166.831,863.417,166.831z"/>
	</g>
	<g display="inline">
		<path opacity="0.6" fill="#F072AB" enable-background="new    " d="M131.299,91.644c-1.453-1.458-5.194-4.807-8.072-6.355
			L17.435,25.192c-3.475-1.71-8.411-2.518-12.203,1.279C1.429,30.268,2.007,34.95,3.76,38.34l60.097,105.817
			c1.45,2.261,5.078,6.934,6.543,8.381c16.822,16.815,44.077,16.819,60.899,0C148.123,135.727,148.123,108.455,131.299,91.644z"/>
		<path opacity="0.8" fill="#26A9E0" enable-background="new    " d="M97.63,26.477c-3.789-3.803-9-2.995-12.066-1.356
			L-19.471,84.756c-3.214,2.05-7.514,5.43-8.969,6.888c-16.822,16.811-16.822,44.083,0,60.894c16.822,16.815,44.083,16.815,60.893,0
			c1.464-1.447,4.687-5.735,5.896-7.341L98.911,38.634C100.874,35.578,101.424,30.268,97.63,26.477z"/>
		<path fill="#26A9E0" d="M-28.44,152.538c-16.822-16.812-16.822-44.083,0-60.894c16.822-16.822,44.083-16.822,60.893,0
			c16.819,16.811,16.819,44.083,0,60.894C15.643,169.354-11.618,169.354-28.44,152.538z"/>
		<path fill="#F072AB" d="M131.344,152.538c-16.823,16.819-44.08,16.815-60.902,0c-16.82-16.812-16.82-44.077,0-60.9
			c16.822-16.816,44.08-16.816,60.902,0.006C148.166,108.455,148.166,135.727,131.344,152.538z"/>
		<g>
			<path fill="#FFFFFF" d="M117.018,139.99c-8.907,8.896-23.339,8.896-32.242,0c-8.91-8.914-8.91-23.34,0-32.254
				c8.902-8.901,23.334-8.901,32.242,0.012C125.919,116.65,125.919,131.076,117.018,139.99z"/>
			<path fill="#F072AB" d="M100.883,111.85c-9.292,0-16.831,7.992-16.831,11.229c0,0.824,0.494,1.604,1.369,2.306
				c0.841-1.711,1.896-3.338,3.33-4.768c1.547-1.548,3.315-2.734,5.191-3.603c-3.763,3.823-3.752,9.963,0.056,13.76
				c3.81,3.813,9.993,3.813,13.815,0c3.814-3.819,3.814-10.006,0-13.82c-0.319-0.32-0.679-0.579-1.033-0.842
				c2.752,0.828,5.347,2.33,7.522,4.504c1.182,1.172,2.086,2.496,2.864,3.871c0.328-0.449,0.547-0.92,0.547-1.408
				C117.713,119.842,110.183,111.85,100.883,111.85z M106.887,121.283c0,1.43-1.161,2.586-2.591,2.586
				c-1.435,0-2.592-1.156-2.592-2.586s1.157-2.592,2.592-2.592C105.726,118.691,106.887,119.854,106.887,121.283z"/>
		</g>
		<g>
			<path fill="#FFFFFF" d="M16.517,139.99c-8.901,8.896-23.345,8.896-32.241,0c-8.913-8.914-8.913-23.34,0-32.254
				c8.896-8.901,23.34-8.901,32.241,0.012C25.417,116.65,25.417,131.076,16.517,139.99z"/>
			<path fill="#26A9E0" d="M0.392,111.85c-9.3,0-16.833,7.992-16.833,11.229c0,0.824,0.481,1.604,1.346,2.306
				c0.855-1.711,1.918-3.338,3.333-4.768c1.547-1.543,3.312-2.729,5.188-3.595c-3.749,3.824-3.735,9.955,0.056,13.752
				c3.814,3.814,10.007,3.814,13.821,0c3.822-3.818,3.822-10.006,0-13.819c-0.325-0.327-0.689-0.585-1.046-0.854
				c2.765,0.832,5.371,2.334,7.554,4.517c1.169,1.172,2.075,2.495,2.866,3.87c0.314-0.448,0.539-0.92,0.539-1.407
				C17.214,119.842,9.68,111.85,0.392,111.85z M6.384,121.283c0,1.43-1.158,2.586-2.591,2.586c-1.423,0-2.594-1.156-2.594-2.586
				s1.171-2.592,2.594-2.592C5.226,118.691,6.384,119.854,6.384,121.283z"/>
		</g>
	</g>
</g>
<g id="Thimble" display="none">
	<g display="inline">
		<g>
			<path fill="#333333" d="M208.31,61.014V39.285c0-3.921-0.45-4.693-2.699-4.693c-1.607,0-3.858,1.092-5.722,2.764v23.659h-8.166
				V39.606c0-4.115-0.578-5.08-2.958-5.08c-1.607,0-3.792,0.837-5.656,2.507v23.98h-8.423V38.062c0-4.756-0.322-6.813-1.22-8.421
				l7.779-2.122c0.579,0.9,0.835,1.672,1.157,3.342c2.249-2.186,5.015-3.342,8.036-3.342c2.701,0,4.95,0.9,6.685,2.701
				c0.45,0.448,0.9,1.029,1.287,1.607c3.021-3.086,5.722-4.308,9.321-4.308c2.572,0,5.015,0.772,6.494,2.057
				c1.864,1.607,2.444,3.536,2.444,8.036v23.402H208.31z"/>
			<path fill="#333333" d="M245.859,57.156c-2.508,2.829-5.787,4.565-10.865,4.565c-8.936,0-14.788-6.686-14.788-17.037
				c0-10.35,5.915-17.23,14.788-17.23c4.693,0,8.357,1.607,11.187,4.952c2.636,3.086,3.793,6.685,3.793,12.021
				C249.973,50.084,248.688,53.942,245.859,57.156z M238.851,35.555c-0.837-1.092-2.188-1.736-3.729-1.736
				c-2.057,0-3.729,1.286-4.436,3.343c-0.579,1.735-0.9,4.051-0.9,7.329c0,3.795,0.387,6.622,1.094,8.294
				c0.771,1.8,2.7,2.701,4.371,2.701c3.729,0,5.337-3.344,5.337-11.123C240.587,39.928,240.008,37.034,238.851,35.555z"/>
			<path fill="#333333" d="M274.856,61.014h-24.237v-5.336l15.492-21.537h-14.207v-6.043h24.431v5.916l-14.529,21.022h15.107
				L274.856,61.014z"/>
			<path fill="#333333" d="M283.792,24.368c-2.893,0-5.271-2.377-5.271-5.334s2.443-5.337,5.4-5.337
				c2.893,0,5.208,2.379,5.208,5.337S286.75,24.368,283.792,24.368z M279.485,61.014V28.676l8.616-1.35v33.688H279.485z"/>
			<path fill="#333333" d="M301.987,61.786c-3.665,0-6.622-1.735-7.651-4.501c-0.643-1.67-0.771-2.699-0.771-7.392V25.334
				c0-4.308-0.128-6.944-0.45-9.901l8.808-1.992c0.322,1.8,0.45,3.921,0.45,8.551v25.651c0,5.656,0.065,6.428,0.579,7.329
				c0.321,0.579,1.028,0.9,1.736,0.9c0.32,0,0.514,0,0.964-0.128l1.479,5.143C305.651,61.464,303.85,61.786,301.987,61.786z"/>
			<path fill="#333333" d="M316.196,61.786c-3.664,0-6.622-1.735-7.65-4.501c-0.644-1.67-0.772-2.699-0.772-7.392V25.334
				c0-4.308-0.128-6.944-0.449-9.901l8.807-1.992c0.322,1.8,0.45,3.921,0.45,8.551v25.651c0,5.656,0.065,6.428,0.579,7.329
				c0.321,0.579,1.028,0.9,1.737,0.9c0.319,0,0.514,0,0.964-0.128l1.479,5.143C319.861,61.464,318.06,61.786,316.196,61.786z"/>
			<path fill="#333333" d="M347.181,62.687c-1.992-0.837-3.792-2.316-4.628-3.986c-0.644,0.642-1.35,1.285-1.993,1.735
				c-1.607,1.157-3.922,1.801-6.622,1.801c-7.329,0-11.313-3.729-11.313-10.287c0-7.715,5.335-11.315,15.814-11.315
				c0.644,0,1.223,0,1.929,0.063v-1.351c0-3.664-0.706-4.885-3.857-4.885c-2.765,0-5.979,1.351-9.515,3.728l-3.664-6.172
				c1.735-1.092,3.021-1.735,5.335-2.699c3.214-1.35,5.979-1.929,9.001-1.929c5.529,0,9.322,2.057,10.607,5.722
				c0.45,1.35,0.644,2.379,0.579,5.915l-0.193,11.057c-0.063,3.601,0.193,5.143,3.086,7.329L347.181,62.687z M339.853,46.613
				c-5.979,0-8.036,1.094-8.036,5.015c0,2.571,1.607,4.308,3.793,4.308c1.607,0,3.214-0.837,4.5-2.25l0.13-7.072h-0.387V46.613z"/>
		</g>
	</g>
	<g display="inline">
		<path fill="#333333" d="M224.104,89.948h-21.931v75.118h-14.495V89.948h-22.056v-12.1h60.372L224.104,89.948z"/>
		<path fill="#333333" d="M267.212,165.066v-43.357c0-7.939-2.773-10.209-8.066-10.209c-4.916,0-10.84,3.15-15.377,7.814v45.75
			h-13.99V89.192c0-5.672-0.504-10.587-1.261-13.864l13.99-3.025c0.883,3.655,1.261,8.823,1.261,14.999v13.612
			c0,3.529-0.252,6.554-0.252,7.186c6.302-5.673,12.729-8.319,19.536-8.319c7.562,0,13.359,3.655,15.502,7.813
			c1.639,3.151,2.143,6.051,2.143,12.479v44.996h-13.486V165.066z"/>
		<path fill="#333333" d="M302.527,91.838c-5.042,0-8.949-4.159-8.949-9.201c0-5.167,4.033-9.327,9.201-9.327
			c4.915,0,9.074,4.033,9.074,9.327C311.853,87.679,307.694,91.838,302.527,91.838z M295.594,165.066V102.3l13.99-2.521v65.288
			H295.594L295.594,165.066z"/>
		<path fill="#333333" d="M392.272,165.066v-44.113c0-7.436-1.638-9.579-6.554-9.579c-4.663,0-9.074,3.151-13.486,7.31v46.383
			h-13.233v-43.735c0-7.437-1.639-9.831-6.933-9.831c-3.906,0-8.444,2.018-13.107,6.302v47.265h-13.486v-45.752
			c0-7.939-0.756-12.729-2.269-16.132l12.604-3.529c1.261,2.017,2.017,4.664,2.27,8.192c5.041-5.167,10.965-8.066,16.889-8.066
			c5.672,0,10.587,1.891,15.251,9.327c6.176-6.302,12.226-9.327,19.031-9.327c10.461,0,16.637,5.42,16.637,18.655v46.633H392.272
			L392.272,165.066z"/>
		<path fill="#333333" d="M449.374,166.453c-6.302,0-11.595-2.521-15.502-7.311c-0.631,3.402-0.883,4.41-1.765,5.924h-12.73
			c1.135-2.898,1.639-5.672,1.639-14.242v-60.12c0-7.31-0.504-11.848-1.639-15.376l14.369-3.151
			c0.756,4.537,1.008,7.688,1.008,12.729v14.873c0,3.655-0.252,5.672-0.378,6.05l0.504,0.126c4.411-4.285,9.075-6.176,15.125-6.176
			c15.25,0,24.83,12.478,24.83,32.391C474.833,152.589,464.247,166.453,449.374,166.453z M446.979,111.5
			c-5.798,0-9.578,3.277-12.1,6.428v31.131c2.773,2.898,6.807,5.547,11.848,5.547c8.696,0,12.479-6.303,12.479-22.31
			C459.206,120.827,456.936,111.5,446.979,111.5z"/>
		<path fill="#333333" d="M500.168,166.453c-13.99,0-13.99-12.604-13.99-18.023V94.107c0-8.697-0.377-13.36-1.26-18.654
			l14.242-3.151c1.008,3.907,1.135,9.201,1.135,17.519v54.07c0,8.571,0.377,9.957,1.387,11.471c0.756,1.135,2.898,1.765,4.537,1.009
			l2.27,8.569C505.967,165.948,503.321,166.453,500.168,166.453z"/>
		<path fill="#333333" d="M528.153,136.96v1.008c0,8.823,3.275,18.15,15.754,18.15c5.924,0,11.092-2.144,15.881-6.304l5.42,8.445
			c-6.68,5.672-14.369,8.444-22.939,8.444c-18.021,0-29.365-12.981-29.365-33.399c0-11.219,2.395-18.654,7.939-24.955
			c5.168-5.925,11.469-8.572,19.535-8.572c6.303,0,12.1,1.639,17.521,6.554c5.545,5.042,8.316,12.855,8.316,27.729v2.898
			L528.153,136.96L528.153,136.96z M540.377,110.24c-7.814,0-12.1,6.176-12.1,16.511h23.568
			C551.846,116.416,547.309,110.24,540.377,110.24z"/>
	</g>
	<g display="inline">
		<path fill="#A3B5BE" d="M141.802,149.958c-1.394-1.394-8.318-5.183-8.318-5.183S122.553,43.1,120.555,39.809
			S96.969,15.44,65.381,15.44c-25.97-0.002-50.849,18.932-52.713,24.369C10.734,45.447-0.27,144.766-0.27,144.766
			s-6.935,3.449-8.008,5.192c-1.073,1.743-3.02,9.327-1.767,14.168c1.251,4.841,40.171,19.354,76.759,19.354
			c34.663,0,74.572-15.272,76.819-19.354C144.941,161.57,143.192,151.352,141.802,149.958z"/>
		<path fill="#FFFFFF" d="M42.53,64.796c0,3.43-2.787,6.2-6.202,6.2c-3.418,0-6.202-2.77-6.202-6.2c0-3.418,2.784-6.189,6.202-6.189
			C39.743,58.607,42.53,61.378,42.53,64.796z"/>
		<path fill="#FFFFFF" d="M70.453,58.604c0,3.43-2.784,6.196-6.205,6.196c-3.403,0-6.19-2.766-6.19-6.196
			c0-3.419,2.787-6.191,6.19-6.191C67.669,52.414,70.453,55.185,70.453,58.604z"/>
		<path fill="#FFFFFF" d="M70.453,83.592c0,3.419-2.784,6.19-6.205,6.19c-3.403,0-6.19-2.771-6.19-6.19
			c0-3.418,2.787-6.199,6.19-6.199C67.669,77.393,70.453,80.174,70.453,83.592z"/>
		<path fill="#FFFFFF" d="M70.453,111.711c0,3.416-2.784,6.196-6.205,6.196c-3.403,0-6.19-2.781-6.19-6.196
			c0-3.421,2.787-6.193,6.19-6.193C67.669,105.52,70.453,108.29,70.453,111.711z"/>
		<path fill="#FFFFFF" d="M98.376,64.791c0,3.43-2.787,6.199-6.213,6.199c-3.407,0-6.191-2.769-6.191-6.199
			c0-3.418,2.784-6.189,6.191-6.189C95.589,58.601,98.376,61.373,98.376,64.791z"/>
		<path fill="#FFFFFF" d="M93.965,92.88c0,2.052-1.67,3.709-3.718,3.709c-2.027,0-3.696-1.657-3.696-3.709
			c0-2.039,1.669-3.699,3.696-3.699C92.295,89.181,93.965,90.841,93.965,92.88z"/>
		<path fill="#FFFFFF" d="M93.965,110.624c0,2.043-1.67,3.702-3.718,3.702c-2.027,0-3.696-1.659-3.696-3.702
			c0-2.048,1.669-3.704,3.696-3.704C92.295,106.92,93.965,108.576,93.965,110.624z"/>
		<path fill="#FFFFFF" d="M39.412,92.88c0,2.052-1.649,3.709-3.697,3.709c-2.05,0-3.719-1.657-3.719-3.709
			c0-2.039,1.669-3.699,3.719-3.699C37.763,89.181,39.412,90.841,39.412,92.88z"/>
		<path fill="#FFFFFF" d="M39.412,110.624c0,2.043-1.649,3.702-3.697,3.702c-2.05,0-3.719-1.659-3.719-3.702
			c0-2.048,1.669-3.704,3.719-3.704C37.763,106.92,39.412,108.576,39.412,110.624z"/>
		<path opacity="0.2" fill="#FFFFFF" enable-background="new    " d="M141.802,149.958c-1.394-1.394-8.318-5.183-8.318-5.183
			S122.553,43.1,120.555,39.809S96.969,15.44,65.381,15.44l-1.125,113.808c0,0-32.261,1.268-64.527,15.518
			c0,0-6.935,3.45-8.008,5.193c-1.073,1.743-2.893,9.703-1.767,14.168c1.127,4.464,40.715,19.355,76.759,19.355
			c35.676,0,75.718-15.853,76.819-19.355C144.635,160.621,143.192,151.352,141.802,149.958z"/>
		<path fill="#647882" d="M125.408,159.555c0,0-24.238,12.827-58.693,12.827c-32.414,0-58.621-12.827-58.621-12.827
			s25.779-14.785,58.621-14.785C100.923,144.77,125.408,159.555,125.408,159.555z"/>
	</g>
</g>
</svg>
